<svg version="1.1" xmlns="http://www.w3.org/2000/svg" xmlns:xlink="http://www.w3.org/1999/xlink" x="0px" y="0px" width="600px"
	 height="400px" viewBox="0 0 600 400" enable-background="new 0 0 600 400" xml:space="preserve">
<g id="liquid">
	<rect display="none" width="600" height="400"/>
	<g>
		<g>
			<path fill="#FFFFFF" d="M52.636,237.59c4.254,3.257,8.508,6.235,12.762,8.948c0-39.892,0-79.783,0-119.675
				c-4.254-3.454-8.508-7.172-12.762-11.169c0-0.832,0-1.664,0-2.496c12.341,11.64,24.681,20.933,37.022,28.228
				c0,0.788,0,1.576,0,2.364c-4.254-2.5-8.508-5.237-12.762-8.226c0,39.225,0,78.449,0,117.674
				c6.822,3.605,13.644,6.563,20.465,8.934c6.744,2.331,12.033,0.591,15.867-4.474c3.832-5.08,6.629-12.607,8.393-22.413
				c0.421,0.087,0.843,0.173,1.265,0.256c0,11.704,0,23.409,0,35.113c-23.417-3.332-46.833-12.726-70.25-30.569
				C52.636,239.253,52.636,238.422,52.636,237.59z"/>
			<path fill="#FFFFFF" d="M130.359,158.709c12.34,3.326,24.681,5.04,37.021,5.49c0,0.696,0,1.391,0,2.087
				c-4.254-0.14-8.508-0.43-12.762-0.885c0,24.514,0,49.028,0,73.542c0,6.09,0.402,11.237,1.207,15.4
				c0.805,4.164,2.013,7.477,3.622,9.9c1.609,2.427,3.602,4.048,5.979,4.83c2.375,0.786,5.096,0.913,8.163,0.366
				c4.292-0.768,8.086-2.395,11.383-4.747c3.295-2.354,6.132-5.876,8.508-10.47c0.765-1.428,1.437-2.833,2.012-4.212
				c0.575-1.377,1.073-2.946,1.495-4.706c0.42-1.759,0.748-3.819,0.978-6.186c0.23-2.364,0.345-5.238,0.345-8.625
				c0-21.878,0-43.755,0-65.632c-4.254,0.503-8.508,0.892-12.762,1.15c0-0.674,0-1.348,0-2.022c9.083-0.519,18.167-1.63,27.25-3.193
				c0,0.642,0,1.284,0,1.925c-4.254,0.747-8.508,1.395-12.762,1.93c0,22.747,0,45.494,0,68.241c0,3.939-0.345,7.615-1.035,11.039
				c-0.69,3.426-2.109,7.173-4.254,11.242c-2.069,3.954-4.944,7.478-8.623,10.475c-3.68,2.992-8.548,5.181-14.602,6.222
				c-9.198,1.576-16.231-0.823-21.098-6.695c-4.869-5.868-7.301-15.391-7.301-28.012c0-24.467,0-48.935,0-73.402
				c-4.254-0.762-8.508-1.702-12.762-2.833C130.359,160.189,130.359,159.449,130.359,158.709z"/>
			<path fill="#FFFFFF" d="M218.428,254.718c3.679-1.36,7.359-2.79,11.038-4.279c7.665-17.934,15.33-35.479,22.995-52.548
				c-8.163-11.781-16.326-24.49-24.489-38.229c-3.181,0.72-6.362,1.394-9.543,2.016c0-0.635,0-1.27,0-1.905
				c11.421-2.193,22.842-5.054,34.263-8.308c0,0.594,0,1.189,0,1.783c-3.679,1.061-7.358,2.082-11.038,3.052
				c6.132,9.789,12.264,19.029,18.396,27.763c6.132-13.259,12.264-26.204,18.396-38.791c-3.679,1.201-7.358,2.382-11.038,3.536
				c0-0.577,0-1.154,0-1.731c7.972-2.47,15.943-5.074,23.915-7.716c0,0.549,0,1.097,0,1.646c-3.679,1.233-7.359,2.457-11.038,3.664
				c-6.4,13.205-12.8,26.809-19.201,40.761c9.543,13.41,19.085,25.605,28.628,36.748c3.181-1.617,6.362-3.241,9.543-4.867
				c0,0.539,0,1.078,0,1.616c-11.497,5.916-22.995,11.816-34.492,17.418c0-0.58,0-1.159,0-1.739
				c3.679-1.779,7.358-3.589,11.037-5.421c-7.474-9.231-14.947-19.16-22.42-29.863c-7.32,16.36-14.64,33.158-21.96,50.319
				c3.679-1.51,7.358-3.079,11.038-4.697c0,0.606,0,1.212,0,1.818c-8.01,3.552-16.02,6.87-24.03,9.858
				C218.428,255.986,218.428,255.352,218.428,254.718z"/>
			<path fill="#FFFFFF" d="M304.888,134.844c12.341-4.111,24.681-8.187,37.021-11.878c0,0.489,0,0.977,0,1.465
				c-4.254,1.287-8.507,2.621-12.761,3.985c0,17.364,0,34.728,0,52.092c0,4.314,0.402,7.785,1.207,10.381
				c0.805,2.599,2.012,4.418,3.621,5.456c1.609,1.04,3.602,1.364,5.979,0.99c2.375-0.371,5.097-1.297,8.162-2.736
				c4.292-2.015,8.088-4.306,11.384-6.857c3.294-2.552,6.132-5.685,8.509-9.385c0.764-1.156,1.437-2.27,2.012-3.339
				c0.574-1.068,1.073-2.25,1.494-3.542c0.421-1.292,0.748-2.77,0.978-4.436c0.229-1.665,0.345-3.657,0.345-5.978
				c0-14.994,0-29.988,0-44.981c-4.254,0.982-8.509,2.044-12.763,3.172c0-0.467,0-0.934,0-1.4c9.083-2.376,18.167-4.452,27.25-6.086
				c0,0.435,0,0.869,0,1.303c-4.254,0.781-8.509,1.658-12.763,2.618c0,15.568,0,31.135,0,46.703c0,2.696-0.345,5.272-1.035,7.749
				c-0.689,2.479-2.108,5.32-4.255,8.589c-2.067,3.175-4.943,6.277-8.622,9.358c-3.679,3.08-8.547,6.05-14.601,8.938
				c-9.199,4.4-16.232,5.888-21.1,3.981c-4.868-1.878-7.302-7.415-7.302-16.438c0-17.465,0-34.931,0-52.396
				c-4.254,1.409-8.507,2.837-12.761,4.27C304.888,135.909,304.888,135.377,304.888,134.844z"/>
			<path fill="#FFFFFF" d="M393.188,174.68c4.254-1.429,8.507-2.754,12.761-3.962c0-20.135,0-40.269,0-60.403
				c-4.254,0.468-8.507,1.053-12.761,1.742c0-0.427,0-0.854,0-1.282c7.281-1.153,14.563-2.003,21.845-2.479
				c0.92-0.06,1.84-0.128,2.758-0.205c0.921-0.076,1.841-0.161,2.761-0.252c0.92-0.035,1.84-0.078,2.76-0.128
				c0.921-0.05,1.839-0.08,2.759-0.089c4.521-0.045,8.509,0.252,11.958,0.781c3.448,0.531,6.668,1.792,9.658,3.695
				c2.682,1.668,4.578,3.46,5.691,5.319c1.11,1.862,1.666,3.544,1.666,5.06c0,0.759-0.213,1.707-0.632,2.854
				c-0.423,1.149-1.343,2.277-2.759,3.429c-1.419,1.153-3.47,2.193-6.152,3.203c-2.684,1.012-6.248,1.744-10.692,2.329
				c0,0.054,0,0.108,0,0.162c1.226,0.051,2.893,0.184,5.002,0.431c2.107,0.249,4.255,0.727,6.438,1.429
				c2.185,0.703,4.198,1.653,6.037,2.823c1.839,1.172,3.142,2.647,3.909,4.396c0.459,1.031,0.784,2.189,0.977,3.478
				c0.19,1.288,0.346,2.61,0.461,3.967c0.114,1.357,0.229,2.664,0.344,3.917c0.115,1.254,0.326,2.309,0.633,3.163
				c0.46,1.307,1.188,2.488,2.187,3.548c0.995,1.063,2.604,1.607,4.828,1.71c0.995,0.047,2.03-0.016,3.104-0.184
				c1.072-0.166,2.03-0.471,2.875-0.917c0.346,0.295,0.69,0.59,1.036,0.886c-0.387,0.153-0.827,0.313-1.322,0.486
				c-0.5,0.171-1.133,0.325-1.896,0.462c-0.768,0.137-1.709,0.234-2.819,0.3c-1.11,0.065-2.471,0.072-4.08,0.037
				c-3.069-0.066-5.617-0.28-7.647-0.734c-2.032-0.453-3.661-1.13-4.888-2.075c-1.226-0.942-2.127-2.133-2.7-3.581
				c-0.576-1.447-0.979-3.156-1.207-5.126c-0.269-2.357-0.536-4.72-0.805-7.089c-0.31-2.601-1.076-4.629-2.301-6.081
				c-1.227-1.449-2.665-2.506-4.312-3.146c-1.65-0.638-3.353-0.983-5.115-1.018c-1.766-0.033-3.297,0.009-4.601,0.116
				c-3.832,0.313-7.664,0.742-11.496,1.277c0,10.274,0,20.549,0,30.823c4.254-0.985,8.509-1.839,12.763-2.548
				c0,0.383,0,0.767,0,1.149c-12.341,2.102-24.682,5.422-37.022,9.612C393.188,175.535,393.188,175.107,393.188,174.68z
				 M417.447,135.73c3.525-0.479,7.051-0.87,10.576-1.162c2.146-0.178,4.102-0.497,5.863-0.963c1.763-0.465,3.278-1.172,4.543-2.129
				c1.265-0.956,2.241-2.216,2.932-3.794c0.689-1.579,1.034-3.568,1.034-5.993c0-2.738-0.518-4.962-1.552-6.682
				c-1.034-1.718-2.377-3.049-4.024-3.97c-1.648-0.919-3.487-1.542-5.518-1.842c-2.032-0.298-4.046-0.433-6.037-0.397
				c-1.38,0.024-2.778,0.079-4.196,0.162c-1.419,0.085-2.626,0.217-3.621,0.388C417.447,118.141,417.447,126.936,417.447,135.73z"/>
			<path fill="#FFFFFF" d="M491.836,166.668c4.254,1.023,8.509,2.261,12.763,3.727c0-6.047,0-12.094,0-18.14
				c-8.624-11.965-17.247-23.864-25.871-35.814c-3.487-1.098-6.974-2.062-10.461-2.9c0-0.338,0-0.676,0-1.015
				c11.728,2.86,23.454,7.145,35.182,13.155c0,0.296,0,0.593,0,0.89c-3.832-1.95-7.664-3.716-11.496-5.309
				c7.664,10.978,15.328,21.965,22.992,33.044c7.244-3.353,14.488-5.362,21.732-5.955c-3.871-3.134-7.743-6.05-11.614-8.757
				c0-0.271,0-0.542,0-0.813c8.201,5.765,16.403,12.464,24.604,20.2c0,0.242,0,0.483,0,0.725c-3.718-3.493-7.436-6.773-11.153-9.851
				c-7.473,0.456-14.946,2.427-22.419,5.836c0,6.41,0,12.82,0,19.23c4.254,1.889,8.509,4.019,12.763,6.404c0,0.266,0,0.532,0,0.798
				c-12.341-6.876-24.681-11.602-37.021-14.526C491.836,167.289,491.836,166.979,491.836,166.668z"/>
		</g>
	</g>
</g>
<g id="solid">
	<g>
		<path fill="#FFFFFF" d="M51.484,238.632h12.762v-78.643H51.484v-1.61h37.022v1.61H75.744v78.643h20.465
			c6.744,0,12.033-2.107,15.867-6.323c3.832-4.215,6.629-9.963,8.393-17.246h1.265v25.179h-70.25V238.632z"/>
		<path fill="#FFFFFF" d="M129.208,158.379h37.021v1.61h-12.762v55.532c0,4.6,0.402,8.491,1.207,11.671
			c0.805,3.181,2.013,5.749,3.622,7.702c1.609,1.955,3.602,3.355,5.979,4.197c2.375,0.844,5.096,1.264,8.163,1.264
			c4.292,0,8.086-0.632,11.383-1.896c3.295-1.265,6.132-3.507,8.508-6.726c0.765-0.995,1.437-1.992,2.012-2.989
			c0.575-0.995,1.073-2.165,1.495-3.507c0.42-1.341,0.748-2.95,0.978-4.829c0.23-1.877,0.345-4.196,0.345-6.955v-53.464h-12.762
			v-1.61h27.25v1.61h-12.762v55.763c0,3.219-0.345,6.151-1.035,8.795c-0.69,2.646-2.109,5.387-4.254,8.221
			c-2.069,2.76-4.944,4.983-8.623,6.669c-3.68,1.687-8.548,2.529-14.602,2.529c-9.198,0-16.231-2.259-21.098-6.783
			c-4.869-4.521-7.301-11.458-7.301-20.812v-54.382h-12.762V158.379z"/>
		<path fill="#FFFFFF" d="M217.276,238.632h11.038l22.995-38.401l-24.49-40.241h-9.543v-1.61h34.263v1.61h-11.038l18.396,30.238
			l18.396-30.238h-11.038v-1.61h23.915v1.61h-11.038l-19.2,31.848l28.628,46.795h9.543v1.609h-34.491v-1.609h11.037l-22.421-36.792
			l-21.96,36.792h11.038v1.609h-24.03V238.632z"/>
		<path fill="#FFFFFF" d="M303.736,158.379h37.021v1.61h-12.761v55.532c0,4.6,0.402,8.491,1.207,11.671
			c0.805,3.181,2.012,5.749,3.621,7.702c1.609,1.955,3.602,3.355,5.979,4.197c2.375,0.844,5.097,1.264,8.162,1.264
			c4.292,0,8.088-0.632,11.384-1.896c3.294-1.265,6.132-3.507,8.509-6.726c0.764-0.995,1.437-1.992,2.012-2.989
			c0.574-0.995,1.073-2.165,1.494-3.507c0.421-1.341,0.748-2.95,0.978-4.829c0.229-1.877,0.345-4.196,0.345-6.955v-53.464h-12.763
			v-1.61h27.25v1.61h-12.763v55.763c0,3.219-0.345,6.151-1.035,8.795c-0.689,2.646-2.108,5.387-4.255,8.221
			c-2.067,2.76-4.943,4.983-8.622,6.669c-3.679,1.687-8.547,2.529-14.601,2.529c-9.199,0-16.232-2.259-21.1-6.783
			c-4.868-4.521-7.302-11.458-7.302-20.812v-54.382h-12.761V158.379z"/>
		<path fill="#FFFFFF" d="M392.036,238.632h12.761v-78.643h-12.761v-1.61h21.845c0.92,0,1.84-0.018,2.758-0.057
			c0.921-0.038,1.841-0.096,2.761-0.173c0.92,0,1.84-0.018,2.76-0.057c0.921-0.038,1.839-0.058,2.759-0.058
			c4.521,0,8.509,0.25,11.958,0.747c3.448,0.5,6.668,1.937,9.658,4.312c2.682,2.069,4.578,4.409,5.691,7.014
			c1.11,2.605,1.666,5.059,1.666,7.357c0,1.15-0.213,2.627-0.632,4.427c-0.423,1.802-1.343,3.642-2.759,5.519
			c-1.419,1.879-3.47,3.604-6.152,5.174c-2.684,1.572-6.248,2.627-10.692,3.162v0.229c1.226,0.155,2.893,0.442,5.002,0.862
			c2.107,0.423,4.255,1.133,6.438,2.127c2.185,0.998,4.198,2.32,6.037,3.968c1.839,1.649,3.142,3.776,3.909,6.38
			c0.459,1.535,0.784,3.277,0.977,5.232c0.19,1.954,0.346,3.967,0.461,6.035c0.114,2.07,0.229,4.064,0.344,5.979
			c0.115,1.917,0.326,3.526,0.633,4.829c0.46,1.993,1.188,3.794,2.187,5.403c0.995,1.611,2.604,2.416,4.828,2.416
			c0.995,0,2.03-0.19,3.104-0.576c1.072-0.382,2.03-0.996,2.875-1.84l1.036,1.265c-0.387,0.308-0.827,0.633-1.322,0.978
			c-0.5,0.345-1.133,0.673-1.896,0.979c-0.768,0.306-1.709,0.555-2.819,0.746c-1.11,0.19-2.471,0.287-4.08,0.287
			c-3.069,0-5.617-0.385-7.647-1.149c-2.032-0.766-3.661-1.896-4.888-3.392c-1.226-1.494-2.127-3.335-2.7-5.519
			c-0.576-2.185-0.979-4.732-1.207-7.646l-0.805-10.463c-0.31-3.832-1.076-6.82-2.301-8.968c-1.227-2.146-2.665-3.717-4.312-4.714
			c-1.65-0.995-3.353-1.59-5.115-1.781c-1.766-0.191-3.297-0.288-4.601-0.288h-11.496v41.506h12.763v1.609h-37.022V238.632z
			 M416.296,195.517h10.576c2.146,0,4.102-0.269,5.863-0.806c1.763-0.535,3.278-1.475,4.543-2.816
			c1.265-1.34,2.241-3.162,2.932-5.461c0.689-2.301,1.034-5.212,1.034-8.738c0-3.984-0.518-7.186-1.552-9.602
			c-1.034-2.414-2.377-4.233-4.024-5.46c-1.648-1.225-3.487-2.03-5.518-2.414c-2.032-0.383-4.046-0.576-6.037-0.576
			c-1.38,0-2.778,0.021-4.196,0.058c-1.419,0.04-2.626,0.135-3.621,0.288V195.517z"/>
		<path fill="#FFFFFF" d="M490.685,238.632h12.763v-32.997l-25.871-45.646h-10.461v-1.61h35.182v1.61h-11.496l22.992,40.471
			l21.732-40.471h-11.614v-1.61h24.604v1.61h-11.153l-22.419,41.966v36.677h12.763v1.609h-37.021V238.632z"/>
	</g>
</g>
</svg>
