<?xml version="1.0" encoding="utf-8"?>
<!-- Generator: Adobe Illustrator 16.0.0, SVG Export Plug-In . SVG Version: 6.00 Build 0)  -->
<!DOCTYPE svg PUBLIC "-//W3C//DTD SVG 1.1//EN" "http://www.w3.org/Graphics/SVG/1.1/DTD/svg11.dtd">
<svg version="1.1" id="Layer_1" xmlns="http://www.w3.org/2000/svg" xmlns:xlink="http://www.w3.org/1999/xlink" x="0px" y="0px"
	 width="631px" height="360px" viewBox="0 0 631 360" enable-background="new 0 0 631 360" xml:space="preserve">
<path fill="#FFFFFF" d="M344.83,41.102c-0.166,0.4-0.293,0.819-0.383,1.252c-0.114,0.544-0.173,1.108-0.154,1.689
	c0.119,3.742,3.099,6.711,6.768,6.88c0.14,0.006,0.281,0.01,0.423,0.008c0.089-0.001,0.182-0.004,0.293-0.012
	c0.043-0.002,0.085-0.008,0.129-0.012c0.171-0.014,0.344-0.023,0.513-0.047c0.316-0.046,0.625-0.113,0.925-0.199
	c0.301-0.086,0.593-0.192,0.875-0.315c0.009-0.004,0.017-0.009,0.025-0.013c0.025-0.013,0.049-0.027,0.074-0.038
	c0.263-0.12,0.517-0.254,0.762-0.402c0.114-0.069,0.217-0.152,0.327-0.227c0.005-0.003,0.01-0.007,0.016-0.011
	c0.081-0.052,0.16-0.088,0.242-0.145c0.042-0.034,0.079-0.073,0.121-0.107c0.015-0.012,0.028-0.025,0.043-0.038
	c0.192-0.159,0.376-0.324,0.556-0.493l0,0l0,0l0-0.001h0l0,0c0.241-0.226,0.464-0.463,0.682-0.704
	c0.031-0.034,0.065-0.065,0.096-0.099c0.014-0.016,0.029-0.031,0.043-0.047c0.233-0.266,0.451-0.541,0.658-0.823
	c0.022-0.03,0.046-0.06,0.068-0.091c0.195-0.271,0.376-0.55,0.547-0.834c0.028-0.046,0.057-0.091,0.083-0.138
	c0.159-0.273,0.305-0.553,0.442-0.835c0.03-0.063,0.061-0.125,0.09-0.187c0.125-0.272,0.239-0.548,0.344-0.828
	c0.03-0.08,0.059-0.159,0.087-0.239c0,0,1.597-3.339,0.223-7.409c-0.003-0.012-0.005-0.024-0.009-0.036
	c-0.056-0.192-0.124-0.38-0.19-0.57c-0.021-0.062-0.043-0.123-0.064-0.184c-0.038-0.113-0.075-0.227-0.119-0.338
	c-0.082-0.206-0.179-0.406-0.272-0.608c-0.07-0.152-0.134-0.307-0.211-0.458c-0.117-0.228-0.252-0.449-0.385-0.671
	c-0.071-0.119-0.134-0.242-0.21-0.359c-0.217-0.336-0.452-0.667-0.707-0.986c-0.622-0.782-1.326-1.456-2.083-2.038
	c-0.682-0.523-1.406-0.972-2.166-1.336c-0.37-0.177-0.747-0.335-1.131-0.473c-0.032-0.018-0.06-0.036-0.091-0.053l0.011,0.023
	c-0.118-0.041-0.24-0.063-0.358-0.101c-1.161-0.369-2.371-0.541-3.584-0.554l0.007-0.021c0,0-10.329-0.309-14.488,8.124
	l-0.007-0.012c-4.786,8.578-0.858,14.507-0.858,14.507c1.174,3,3.48,5.938,6.915,8.812l0.017,0.014
	c-0.132,0.022-0.272,0.041-0.398,0.065c-0.299,0.059-0.579,0.123-0.83,0.186c-0.126,0.03-0.253,0.047-0.379,0.083
	c-0.112,0.032-0.216,0.076-0.326,0.11c-5.665,1.795-8.925,7.78-7.299,13.552c0.245,0.869,0.597,1.677,1.021,2.43l0,0
	c0.337,0.599,0.722,1.159,1.155,1.675c1.221,1.456,2.793,2.562,4.546,3.23l0.024-0.064c-1.95-0.646-3.642-1.99-4.7-3.824
	c-0.348-0.603-0.636-1.252-0.833-1.953c-0.23-0.816-0.329-1.637-0.317-2.443l0,0c0.521-3.739,3.177-7.001,7.034-8.093
	c0.528-0.15,1.058-0.241,1.586-0.3c4.675-0.523,9.177,2.391,10.498,7.078c0.056,0.198,0.092,0.396,0.135,0.595
	c0.079,0.361,0.136,0.723,0.174,1.083c-0.038-0.36-0.096-0.722-0.174-1.083c0.192,1.421,0.189,2.881-0.055,4.338
	c-0.021,0.119-0.055,0.238-0.078,0.357c-0.159,0.824-0.377,1.646-0.688,2.457c-2.87,7.501-11.263,11.25-18.746,8.373
	c-7.483-2.877-11.222-11.291-8.352-18.792c0.65-1.7,1.596-3.192,2.739-4.471c1.083-1.044,2.43-2.118,4.096-3.19
	c0.314-0.164,0.629-0.328,0.954-0.469L330.5,60.2c-0.039,0.017-0.075,0.04-0.114,0.057c-0.149,0.004-0.399,0.008-0.727,0.006
	c-16.252-2.134-13.532-9.527-13.532-9.527c3.264-5.768,12.409-7.487,12.409-7.487c-14.343-4.515-12.309-10.753-12.309-10.753
	c0.812-7.278,11.479-9.722,11.479-9.722s-10.593-0.506-12.124-19.801V0.01c-0.018,0.636-0.047,1.249-0.083,1.85
	c-0.035-0.601-0.064-1.214-0.082-1.85v2.963c-1.531,19.295-12.124,19.801-12.124,19.801s10.667,2.443,11.479,9.722
	c0,0,2.034,6.238-12.309,10.753c0,0,9.145,1.719,12.409,7.487c0,0,2.721,7.393-13.532,9.527c-0.327,0.002-0.577-0.002-0.727-0.006
	c-0.038-0.017-0.075-0.04-0.113-0.057l-0.051,0.051c0.325,0.141,0.64,0.305,0.955,0.469c1.666,1.072,3.013,2.146,4.095,3.19
	c1.143,1.278,2.089,2.771,2.739,4.471c2.87,7.501-0.87,15.915-8.353,18.792c-7.483,2.877-15.876-0.872-18.746-8.373
	c-0.31-0.811-0.528-1.633-0.688-2.457c-0.023-0.119-0.058-0.238-0.078-0.357c-0.244-1.458-0.247-2.917-0.055-4.338
	c-0.079,0.361-0.136,0.723-0.174,1.083c0.038-0.36,0.096-0.722,0.174-1.083c0.043-0.198,0.08-0.396,0.135-0.595
	c1.321-4.687,5.823-7.601,10.498-7.078c0.528,0.059,1.059,0.15,1.586,0.3c3.857,1.092,6.513,4.354,7.034,8.093l0,0
	c0.011,0.806-0.087,1.627-0.317,2.443c-0.198,0.701-0.486,1.35-0.833,1.953c-1.059,1.833-2.75,3.177-4.7,3.824l0.024,0.064
	c1.752-0.669,3.325-1.775,4.546-3.23c0.433-0.516,0.818-1.076,1.155-1.675l0,0c0.424-0.753,0.775-1.561,1.021-2.43
	c1.626-5.771-1.635-11.757-7.299-13.552c-0.11-0.035-0.214-0.079-0.326-0.11c-0.126-0.036-0.252-0.053-0.379-0.083
	c-0.251-0.063-0.53-0.126-0.83-0.186c-0.126-0.025-0.266-0.043-0.398-0.065l0.017-0.014c3.435-2.874,5.741-5.811,6.915-8.812
	c0,0,3.928-5.929-0.858-14.507l-0.007,0.012c-4.159-8.433-14.488-8.124-14.488-8.124l0.007,0.021
	c-1.213,0.013-2.423,0.185-3.584,0.554c-0.118,0.038-0.241,0.06-0.358,0.101l0.011-0.023c-0.031,0.018-0.06,0.036-0.091,0.053
	c-0.384,0.138-0.761,0.296-1.131,0.473c-0.759,0.364-1.484,0.813-2.166,1.336c-0.757,0.582-1.461,1.255-2.083,2.038
	c-0.255,0.32-0.49,0.65-0.707,0.986c-0.076,0.118-0.139,0.24-0.21,0.359c-0.133,0.222-0.268,0.443-0.385,0.671
	c-0.078,0.15-0.141,0.305-0.211,0.458c-0.094,0.202-0.191,0.403-0.272,0.608c-0.044,0.111-0.081,0.225-0.119,0.338
	c-0.021,0.061-0.043,0.122-0.064,0.184c-0.066,0.189-0.134,0.378-0.19,0.57c-0.003,0.012-0.006,0.024-0.009,0.036
	c-1.375,4.07,0.223,7.409,0.223,7.409c0.028,0.08,0.058,0.159,0.087,0.239c0.104,0.279,0.218,0.556,0.344,0.828
	c0.029,0.063,0.06,0.125,0.09,0.187c0.137,0.283,0.283,0.562,0.442,0.835c0.027,0.046,0.056,0.091,0.083,0.138
	c0.171,0.284,0.352,0.563,0.547,0.834c0.022,0.031,0.046,0.061,0.068,0.091c0.207,0.282,0.425,0.557,0.658,0.823
	c0.014,0.016,0.029,0.031,0.043,0.047c0.03,0.034,0.065,0.065,0.096,0.099c0.218,0.241,0.441,0.478,0.682,0.704l0,0h0l0,0.001l0,0
	l0,0c0.18,0.168,0.365,0.333,0.556,0.493c0.015,0.013,0.028,0.026,0.043,0.038c0.042,0.034,0.078,0.073,0.121,0.107
	c0.082,0.056,0.161,0.093,0.242,0.145c0.005,0.003,0.01,0.007,0.015,0.011c0.109,0.075,0.213,0.158,0.327,0.227
	c0.245,0.148,0.5,0.282,0.763,0.402c0.025,0.011,0.049,0.025,0.074,0.038c0.008,0.004,0.017,0.009,0.025,0.013
	c0.282,0.124,0.574,0.229,0.875,0.315c0.3,0.086,0.609,0.153,0.926,0.199c0.168,0.024,0.341,0.034,0.512,0.047
	c0.043,0.003,0.086,0.009,0.129,0.012c0.111,0.008,0.204,0.01,0.293,0.012c0.142,0.002,0.283-0.001,0.423-0.008
	c3.669-0.169,6.649-3.139,6.768-6.88c0.019-0.581-0.041-1.145-0.155-1.689c-0.09-0.433-0.218-0.852-0.383-1.252
	c-0.01,0.145-0.025,0.288-0.048,0.428c0.097,0.438,0.147,0.892,0.132,1.36c-0.018,0.545-0.116,1.067-0.279,1.56l0,0
	c-1.045,2.191-3.307,3.674-5.884,3.592c-0.353-0.011-0.696-0.058-1.031-0.125c-2.968-0.591-5.164-3.255-5.064-6.388
	c0.004-0.132,0.02-0.261,0.032-0.391c0.158-0.909,0.443-1.803,0.876-2.649c0.035-0.069,0.08-0.135,0.117-0.204
	c0.257-0.474,0.55-0.936,0.898-1.373c3.215-4.041,9.089-4.703,13.12-1.479c1.083,0.867,1.916,1.928,2.501,3.092
	c0.052,0.103,0.086,0.211,0.135,0.316c0.377,0.953,1.334,3.99-0.256,7.176c-0.671,1.194-1.504,2.305-2.508,3.329
	c-1.026,1.047-2.09,2.032-3.194,2.953l-1.833,1.55l0,0c-5.94,4.907-9.442,9.496-10.917,13.638
	c-2.06,5.784-1.615,10.565-0.528,13.656c1.541,4.386,4.471,7.968,7.562,10.609c5.247,4.483,12.804,6.03,19.681,3.386
	c1.271-0.489,2.453-1.106,3.55-1.822c9.199-5.46,11.819-13.364,12.269-14.967c0.451,1.604,3.071,9.507,12.269,14.967
	c1.096,0.716,2.279,1.333,3.55,1.822c6.877,2.644,14.434,1.098,19.681-3.386c3.091-2.641,6.021-6.224,7.563-10.609
	c1.086-3.091,1.531-7.872-0.528-13.656c-1.475-4.142-4.977-8.731-10.917-13.638l-0.001-0.001l-1.833-1.55
	c-1.104-0.921-2.167-1.906-3.194-2.953c-1.004-1.024-1.837-2.135-2.508-3.329c-1.59-3.187-0.633-6.223-0.255-7.176
	c0.048-0.104,0.083-0.213,0.134-0.316c0.585-1.164,1.417-2.226,2.501-3.092c4.031-3.224,9.905-2.561,13.12,1.479
	c0.348,0.437,0.641,0.898,0.898,1.373c0.037,0.068,0.082,0.134,0.117,0.204c0.433,0.846,0.717,1.741,0.875,2.649
	c0.012,0.13,0.028,0.259,0.032,0.391c0.1,3.132-2.096,5.797-5.064,6.388c-0.335,0.067-0.678,0.114-1.031,0.125
	c-2.577,0.083-4.838-1.4-5.883-3.592h0c-0.163-0.492-0.262-1.015-0.279-1.56c-0.015-0.469,0.036-0.923,0.132-1.36
	C344.855,41.39,344.84,41.247,344.83,41.102z M330.173,60.352c0.017-0.004,0.032-0.009,0.049-0.013
	c-0.044,0.02-0.086,0.044-0.129,0.064C330.12,60.386,330.145,60.369,330.173,60.352z M300.778,60.339
	c0.017,0.004,0.032,0.009,0.049,0.013c0.028,0.017,0.053,0.035,0.081,0.052C300.864,60.383,300.822,60.359,300.778,60.339z
	 M279.417,73.926c0.211,0.606,0.483,1.188,0.794,1.749C279.899,75.115,279.628,74.533,279.417,73.926z M280.331,75.905
	c-0.078-0.341-0.137-0.688-0.177-1.038C280.193,75.217,280.252,75.564,280.331,75.905L280.331,75.905z M350.669,75.905
	c0.078-0.341,0.137-0.688,0.177-1.038C350.806,75.217,350.747,75.563,350.669,75.905L350.669,75.905z M351.583,73.926
	c-0.211,0.606-0.483,1.188-0.794,1.749C351.1,75.115,351.372,74.533,351.583,73.926z"/>
<path fill="#FFFFFF" d="M188.853,251.091c-1.61-1.977-4.441-3.313-7.023-3.313c-5.217,0-9.521,4.508-9.521,9.657
	c0,2.448,1.055,4.757,2.804,6.483c1.749,1.668,4.247,2.894,6.716,2.894c2.417,0,5.469-1.309,7.023-3.2v1.837
	c-1.971,1.641-4.385,2.615-6.967,2.615c-5.83,0-10.909-4.87-10.909-10.74c0-5.955,4.998-10.797,10.937-10.797
	c2.527,0,5.081,1.003,6.939,2.727V251.091z"/>
<path fill="#FFFFFF" d="M227.632,257.295c0,5.899-4.969,10.769-10.854,10.769c-5.884,0-10.853-4.87-10.853-10.769
	c0-5.898,4.941-10.769,10.853-10.769C222.664,246.527,227.632,251.397,227.632,257.295z M207.257,257.295
	c0,5.176,4.304,9.517,9.521,9.517c5.191,0,9.522-4.369,9.522-9.517c0-5.175-4.331-9.517-9.522-9.517
	C211.561,247.779,207.257,252.12,207.257,257.295z"/>
<path fill="#FFFFFF" d="M246.645,266.534h5.33v1.252h-6.662v-20.981h1.333V266.534z"/>
<path fill="#FFFFFF" d="M270.156,266.534h5.33v1.252h-6.662v-20.981h1.332V266.534z"/>
<path fill="#FFFFFF" d="M293.668,248.057v7.625h8.438v1.252h-8.438v9.6h8.661v1.252h-9.994v-20.981h9.994v1.252H293.668z"/>
<path fill="#FFFFFF" d="M337.47,251.091c-1.611-1.977-4.441-3.313-7.024-3.313c-5.217,0-9.521,4.508-9.521,9.657
	c0,2.448,1.055,4.757,2.804,6.483c1.748,1.668,4.247,2.894,6.716,2.894c2.417,0,5.469-1.309,7.024-3.2v1.837
	c-1.972,1.641-4.387,2.615-6.968,2.615c-5.83,0-10.909-4.87-10.909-10.74c0-5.955,4.996-10.797,10.937-10.797
	c2.527,0,5.081,1.003,6.941,2.727V251.091z"/>
<path fill="#FFFFFF" d="M360.454,267.786h-1.333v-19.729h-5.413v-1.252h12.158v1.252h-5.413V267.786z"/>
<path fill="#FFFFFF" d="M384.049,267.786h-1.333v-20.981h1.333V267.786z"/>
<path fill="#FFFFFF" d="M423.438,257.295c0,5.899-4.968,10.769-10.854,10.769c-5.884,0-10.854-4.87-10.854-10.769
	c0-5.898,4.941-10.769,10.854-10.769C418.469,246.527,423.438,251.397,423.438,257.295z M403.063,257.295
	c0,5.176,4.303,9.517,9.521,9.517c5.191,0,9.522-4.369,9.522-9.517c0-5.175-4.331-9.517-9.522-9.517
	C407.366,247.779,403.063,252.12,403.063,257.295z"/>
<path fill="#FFFFFF" d="M460.023,268.482l-17.571-18.728v18.032h-1.332v-21.259l17.571,18.588v-18.31h1.333V268.482z"/>
<path fill="#FFFFFF" d="M31.59,161.159c-2.698-4.294-6.505-7.078-12.138-7.078c-6.426,0-11.265,5.17-11.265,11.451
	c0,6.283,5.951,8.907,10.79,11.212L30.4,182.71c4.521,2.863,6.823,6.521,6.823,11.927c0,9.94-9.046,17.416-18.721,17.416
	c-8.331,0-14.836-5.168-17.613-12.882l3.331-1.512c2.542,6.361,7.22,10.815,14.439,10.815c7.852,0,14.754-6.202,14.754-14.154
	c0-6.759-6.901-9.622-12.055-12.167l-10.79-5.726c-3.967-2.465-6.187-5.963-6.187-10.736c0-8.907,6.344-15.188,15.308-15.188
	c6.03,0,11.741,3.26,14.597,8.429L31.59,161.159z"/>
<path fill="#FFFFFF" d="M180.486,213.246l-50.216-53.519v51.53h-3.807v-60.754l50.216,53.119v-52.326h3.806V213.246z"/>
<path fill="#FFFFFF" d="M296.622,161.636h-0.157l-20.865,51.61l-20.784-51.61h-0.157l-10.236,49.622h-3.646l12.849-61.947
	l21.974,54.552l22.056-54.552l12.849,61.947h-3.649L296.622,161.636z"/>
<path fill="#FFFFFF" d="M335.729,211.258h-3.806v-59.96h3.806V211.258z"/>
<path fill="#FFFFFF" d="M410.377,163.545c-4.604-5.646-12.695-9.464-20.072-9.464c-14.915,0-27.209,12.882-27.209,27.595
	c0,6.997,3.017,13.597,8.013,18.528c4.996,4.771,12.137,8.27,19.196,8.27c6.901,0,15.629-3.737,20.072-9.146v5.249
	c-5.633,4.691-12.534,7.476-19.911,7.476c-16.659,0-31.176-13.916-31.176-30.696c0-17.017,14.278-30.854,31.255-30.854
	c7.22,0,14.514,2.862,19.833,7.792V163.545z"/>
<path fill="#FFFFFF" d="M475.9,176.744v-25.447h3.807v59.96H475.9v-30.934h-36.334v30.934h-3.806v-59.96h3.806v25.447H475.9z"/>
<path fill="#FFFFFF" d="M510.644,154.876v21.789h24.118v3.58h-24.118v27.434h24.75v3.579h-28.557v-59.96h28.557v3.579H510.644z"/>
<path fill="#FFFFFF" d="M565.142,207.679h15.232v3.579h-19.039v-59.96h3.807V207.679z"/>
<path fill="#FFFFFF" d="M605.36,154.876v21.789h24.118v3.58H605.36v27.434h24.75v3.579h-28.557v-59.96h28.557v3.579H605.36z"/>
<path fill="#FFFFFF" d="M80.376,149.311l-25.068,61.947h3.888l7.664-18.863h-0.014l1.789-4.437l11.741-28.947l11.662,28.947h-0.015
	l1.427,3.578h0.014l8.013,19.722h3.885L80.376,149.311z"/>
<path fill="#FFFFFF" d="M143.674,318.344h343.652"/>
<path fill="#FFFFFF" d="M187.398,359.716h-1.713l-2.034-13.633c-0.107-0.699-0.161-2.201-0.241-3.301h-0.107
	c-0.106,1.101-0.188,2.63-0.294,3.301l-2.356,13.633h-1.713l-3.213-20.235h1.928l1.793,13.527c0.134,0.993,0.214,2.012,0.321,3.006
	h0.107c0.134-0.994,0.214-2.013,0.375-3.006l2.329-13.527h1.606l1.927,13.527c0.134,0.993,0.268,2.012,0.401,3.006h0.108
	c0.106-0.994,0.187-2.013,0.348-3.006l2.088-13.527h1.901L187.398,359.716z"/>
<path fill="#FFFFFF" d="M242.208,341.198h-4.471v7.14h4.336v1.717h-4.336v7.943h4.471v1.717h-6.345V339.48h6.345V341.198z"/>
<path fill="#FFFFFF" d="M294.746,342.674c-0.803-0.913-1.687-1.638-2.972-1.638c-1.875,0-2.918,1.558-2.918,3.275
	c0,2.361,1.713,3.461,3.454,4.644c1.713,1.207,3.427,2.495,3.427,5.287c0,2.952-1.9,5.742-5.06,5.742
	c-1.125,0-2.276-0.322-3.186-1.019v-2.442c0.856,0.913,1.98,1.638,3.266,1.638c1.981,0,3.079-1.745,3.052-3.571
	c0.027-2.361-1.713-3.407-3.427-4.615c-1.713-1.181-3.453-2.495-3.453-5.395c0-2.71,1.659-5.367,4.632-5.367
	c1.204,0,2.221,0.401,3.186,1.073V342.674z"/>
<path fill="#FFFFFF" d="M347.496,341.198h-3.024v18.518h-1.875v-18.518h-3.024v-1.718h7.923V341.198z"/>
<path fill="#FFFFFF" d="M401.426,349.598c0,3.785-0.269,10.386-4.953,10.386c-4.418,0-4.953-5.662-4.953-10.386
	c0-5.126,0.669-10.385,4.953-10.385C401.023,339.213,401.426,345.143,401.426,349.598z M393.447,349.598
	c0,3.569,0.134,8.562,3.026,8.562c2.891,0,3.025-4.993,3.025-8.562c0-3.569-0.134-8.562-3.025-8.562
	C393.581,340.903,393.447,346.029,393.447,349.598z"/>
<path fill="#FFFFFF" d="M455.273,359.716h-1.633l-4.55-13.606c-0.295-0.831-0.456-1.744-0.697-2.603h-0.107
	c0.082,1.314,0.215,2.603,0.215,3.918v12.291h-1.633V339.48h1.633l4.632,14.063c0.241,0.699,0.429,1.396,0.616,2.093h0.08
	c-0.054-0.885-0.188-1.798-0.188-2.683V339.48h1.633V359.716z"/>
</svg>
