<?xml version="1.0" standalone="no"?>
<!DOCTYPE svg PUBLIC "-//W3C//DTD SVG 1.1//EN" "http://www.w3.org/Graphics/SVG/1.1/DTD/svg11.dtd" >
<svg xmlns="http://www.w3.org/2000/svg" xmlns:xlink="http://www.w3.org/1999/xlink" version="1.1">
<metadata>
Created by FontForge 20170731 at Fri Nov  9 13:48:55 2001
 By ,,,
Copyright (c) 1989, 1995 Adobe Systems Incorporated.  All Rights Reserved.Avenir is a trademark of Linotype-Hell AG and/or its subsidiaries.
</metadata>
<defs>
<font id="AvenirLT-Oblique" horiz-adv-x="556" >
  <font-face 
    font-family="Avenir LT 55 Roman"
    font-weight="400"
    font-style="oblique"
    font-stretch="normal"
    units-per-em="1000"
    panose-1="2 0 5 3 4 0 0 9 0 3"
    ascent="800"
    descent="-200"
    x-height="468"
    cap-height="708"
    bbox="-166 -250 1055 928"
    underline-thickness="50"
    underline-position="-175"
    slope="-8"
    unicode-range="U+0020-FB02"
  />
<missing-glyph horiz-adv-x="278" 
 />
    <glyph glyph-name=".notdef" horiz-adv-x="278" 
 />
    <glyph glyph-name=".null" horiz-adv-x="0" 
 />
    <glyph glyph-name="nonmarkingreturn" horiz-adv-x="333" 
 />
    <glyph glyph-name="space" unicode=" " horiz-adv-x="278" 
 />
    <glyph glyph-name="space" unicode="&#xa0;" horiz-adv-x="278" 
 />
    <glyph glyph-name="exclam" unicode="!" horiz-adv-x="278" 
d="M154 114q25 0 40.5 -17.5t11.5 -42.5t-24.5 -42.5t-43.5 -17.5t-39.5 17.5t-12.5 42.5t23.5 42.5t44.5 17.5zM208 198h-84l71 510h84z" />
    <glyph glyph-name="quotedbl" unicode="&#x22;" horiz-adv-x="519" 
d="M395 708h72l-33 -240h-72zM248 708h72l-33 -240h-72z" />
    <glyph glyph-name="numbersign" unicode="#" 
d="M411 431h-126l-42 -152h126zM157 213h-98l9 66h108l41 152h-98l10 66h108l59 211h67l-59 -211h126l59 211h67l-59 -211h98l-10 -66h-107l-42 -152h98l-9 -66h-108l-59 -213h-67l59 213h-126l-59 -213h-67z" />
    <glyph glyph-name="dollar" unicode="$" 
d="M313 66q52 6 90.5 39t45.5 81q4 27 -3 47t-22 34t-35.5 23.5t-42.5 16.5zM345 642q-51 -9 -84.5 -40.5t-40.5 -79.5q-3 -26 2.5 -44t18.5 -31t31.5 -22.5t39.5 -18.5zM254 -12q-62 0 -116.5 21.5t-84.5 71.5l78 61q17 -34 54 -54t80 -22l35 254q-38 10 -71.5 26.5
t-57.5 40.5t-35.5 57.5t-5.5 78.5q6 42 27 77t52 60.5t69 41t78 18.5l9 66h48l-9 -66q54 0 103.5 -20t78.5 -61l-74 -60q-18 30 -49 46.5t-70 16.5l-35 -249q39 -13 74.5 -28t62 -37.5t39.5 -55.5t6 -82q-6 -45 -28 -81t-54.5 -62t-72.5 -41t-83 -18l-10 -71h-48z" />
    <glyph glyph-name="percent" unicode="%" horiz-adv-x="833" 
d="M716 740l51 -32l-547 -740l-50 32zM539 163q-3 -21 3 -39.5t18 -33t29.5 -22.5t38.5 -8t40.5 8t35.5 22.5t27 33t14 39.5t-2.5 39.5t-17.5 33t-29.5 22.5t-38.5 8t-40.5 -8t-36 -22.5t-27.5 -33t-14 -39.5zM467 163q5 37 23 69t45 55.5t61 37t71 13.5t67 -13.5t50 -37
t29 -55.5t4 -69t-23 -69t-45 -55.5t-60.5 -37t-70.5 -13.5t-67 13.5t-50 37t-29.5 55.5t-4.5 69zM185 545q-3 -21 3 -39.5t18 -33t29.5 -22.5t38.5 -8t40.5 8t36 22.5t27 33t13.5 39.5t-2.5 39.5t-17.5 33t-29.5 22.5t-38.5 8t-40.5 -8t-36 -22.5t-27.5 -33t-14 -39.5z
M113 545q5 37 23 69t45 55.5t61 37t71 13.5t67 -13.5t50 -37t29 -55.5t4 -69t-23 -69t-45 -55.5t-60.5 -37t-70.5 -13.5t-67 13.5t-50 37t-29.5 55.5t-4.5 69z" />
    <glyph glyph-name="ampersand" unicode="&#x26;" horiz-adv-x="722" 
d="M316 344q-24 -12 -48.5 -26.5t-44.5 -32.5t-34.5 -41t-18.5 -51q-4 -29 4 -53t24.5 -42t40 -28t51.5 -10q27 0 51 8t45.5 21.5t41 31t39.5 37.5zM350 435q21 11 44 23t42 27t33 35t17 46q6 39 -17.5 61t-60.5 22q-42 0 -75.5 -25.5t-39.5 -69.5q-5 -29 7.5 -51.5
t28.5 -41.5zM511 102q-51 -54 -104 -84t-124 -30q-45 0 -84 13.5t-66.5 39.5t-40.5 63.5t-6 85.5q5 37 22 68.5t42 57t56 45t65 34.5q-29 35 -49 74t-13 90q6 39 25 69.5t47 51t62.5 31t71.5 10.5q36 0 66.5 -10t52 -29.5t31.5 -49t5 -68.5q-5 -33 -22 -60.5t-41.5 -49
t-54 -39t-57.5 -31.5l128 -159l117 159h95l-166 -218l139 -166h-115z" />
    <glyph glyph-name="quotesingle" unicode="'" horiz-adv-x="278" 
d="M201 708h72l-33 -240h-72z" />
    <glyph glyph-name="parenleft" unicode="(" horiz-adv-x="278" 
d="M179 -156q-58 99 -79.5 214t-4.5 230q17 124 71 237t136 207l49 -40q-76 -88 -122.5 -191t-61.5 -213q-9 -60 -8 -112t10 -100.5t26.5 -95.5t42.5 -98z" />
    <glyph glyph-name="parenright" unicode=")" horiz-adv-x="278" 
d="M178 732q58 -99 79.5 -214t5.5 -230q-17 -124 -71.5 -237t-136.5 -207l-49 40q77 88 123 191t62 213q8 60 7.5 112t-10 100.5t-27 95.5t-42.5 98z" />
    <glyph glyph-name="asterisk" unicode="*" horiz-adv-x="444" 
d="M329 559l149 48l11 -58l-148 -48l73 -119l-55 -38l-73 123l-104 -123l-44 38l103 119l-134 48l27 58l135 -48l21 149h60z" />
    <glyph glyph-name="plus" unicode="+" horiz-adv-x="666" 
d="M118 336h228l32 228h66l-32 -228h228l-9 -66h-228l-32 -228h-66l32 228h-228z" />
    <glyph glyph-name="comma" unicode="," horiz-adv-x="278" 
d="M109 -138h-77l102 240h91z" />
    <glyph glyph-name="hyphen" unicode="-" horiz-adv-x="333" 
d="M120 276h245l-20 -72h-245z" />
    <glyph glyph-name="hyphen" unicode="&#xad;" horiz-adv-x="333" 
d="M120 276h245l-20 -72h-245z" />
    <glyph glyph-name="period" unicode="." horiz-adv-x="278" 
d="M154 114q25 0 40.5 -17.5t11.5 -42.5t-24.5 -42.5t-43.5 -17.5t-39.5 17.5t-12.5 42.5t23.5 42.5t44.5 17.5z" />
    <glyph glyph-name="slash" unicode="/" horiz-adv-x="370" 
d="M60 -43l-60 25l408 768l60 -24z" />
    <glyph glyph-name="zero" unicode="0" 
d="M171 354q-6 -39 -8 -90t7.5 -96t36 -76.5t79.5 -31.5q52 0 87.5 31.5t58 76.5t34 96t17.5 90q3 26 6 58t1.5 64.5t-7.5 63.5t-20 55t-37 38.5t-58 14.5q-53 0 -88 -31.5t-57.5 -76.5t-34.5 -96t-17 -90zM87 354q8 60 27 125t53.5 118.5t86 88t124.5 34.5q49 0 83.5 -16
t57 -43t35 -63.5t17.5 -77t3 -83.5t-7 -83q-9 -60 -28 -125t-53 -118.5t-85.5 -88t-124.5 -34.5t-115 34.5t-61.5 88t-20.5 118.5t8 125z" />
    <glyph glyph-name="one" unicode="1" 
d="M360 0h-84l83 600h-2l-142 -107l-41 61l211 154h73z" />
    <glyph glyph-name="two" unicode="2" 
d="M63 96l303 260q28 24 50 44.5t37 40t24 40.5t13 47q4 28 -3 50t-22.5 37.5t-37.5 24t-49 8.5q-54 0 -93.5 -31t-56.5 -82l-90 8q13 43 37.5 76.5t56.5 55.5t71 33.5t82 11.5q44 0 81.5 -12.5t63.5 -36.5t38.5 -60t5.5 -83q-6 -42 -22.5 -76t-39.5 -62.5t-51.5 -54
t-58.5 -50.5l-246 -205l-1 -2h361l-10 -78h-456z" />
    <glyph glyph-name="three" unicode="3" 
d="M260 408h26q26 0 55 4t54.5 17t44.5 37.5t24 64.5q7 54 -22 85.5t-82 31.5q-45 0 -81 -20t-60 -59l-77 31q34 60 94 90t128 30q42 0 79 -12t62.5 -35t37.5 -57.5t6 -80.5q-8 -56 -48 -100.5t-96 -61.5v-2q33 -6 57.5 -22t40 -39.5t21.5 -53.5t1 -63q-7 -51 -31 -89
t-59.5 -64t-80 -39t-91.5 -13q-81 0 -136 35t-71 114l88 28q11 -57 40.5 -81t88.5 -24q30 0 57.5 10t49.5 28.5t37 44t19 56.5q6 39 -6.5 65.5t-35.5 42t-54 22.5t-64 7h-26z" />
    <glyph glyph-name="four" unicode="4" 
d="M419 610h-2l-277 -370h228zM452 240h102l-11 -78h-102l-22 -162h-84l22 162h-300l13 93l344 453h103z" />
    <glyph glyph-name="five" unicode="5" 
d="M561 630h-289l-29 -191q21 10 46 13.5t47 3.5q51 0 90 -17.5t64.5 -49t36 -74t3.5 -92.5q-8 -53 -32.5 -96.5t-61.5 -74t-83.5 -47.5t-98.5 -17q-80 0 -125.5 35t-65.5 94l88 32q13 -40 44 -64.5t76 -24.5q32 0 61.5 11.5t53 33t39.5 51.5t21 67q5 39 -4 69t-30 50.5
t-51.5 31t-67.5 10.5q-36 0 -76 -12.5t-74 -31.5l58 368h371z" />
    <glyph glyph-name="six" unicode="6" 
d="M328 360q-32 0 -61.5 -10.5t-52.5 -30t-39 -47.5t-21 -62q-5 -35 3 -62.5t26 -47t44.5 -30t58.5 -10.5t61.5 10.5t52.5 30t39 47t21 62.5q5 34 -3 62t-26 47.5t-44.5 30t-58.5 10.5zM261 413l2 -2q21 11 48.5 16t49.5 5q46 0 83 -16t61.5 -45.5t35 -70.5t3.5 -90
q-7 -52 -31 -93t-60 -69.5t-81.5 -44t-95.5 -15.5t-91.5 15.5t-69 44t-40 69.5t-5.5 93q8 61 33.5 107t60.5 92l230 299h98z" />
    <glyph glyph-name="seven" unicode="7" 
d="M567 630l-370 -630h-95l375 630h-342l11 78h432z" />
    <glyph glyph-name="eight" unicode="8" 
d="M163 201q-4 -31 3.5 -57t24 -44.5t41 -29t54.5 -10.5t57 10.5t49 29t36.5 44.5t18.5 57t-3 57t-23.5 44.5t-41 29t-54.5 10.5t-57 -10.5t-49 -29t-37 -44.5t-19 -57zM233 531q-7 -51 21 -84t81 -33t90 33t44 84q8 51 -20 84t-81 33t-90 -33t-45 -84zM150 535q6 42 26 76
t51 58t69.5 37.5t81.5 13.5t78 -13.5t58.5 -37.5t34.5 -58t5 -76q-3 -25 -14.5 -50t-29.5 -46t-42 -37t-52 -23v-2q31 -7 54.5 -23.5t38.5 -40.5t20.5 -54.5t1.5 -63.5q-7 -48 -30 -86.5t-57 -65.5t-77.5 -41t-90.5 -14t-86.5 14t-66 41t-39 65.5t-5.5 86.5q4 33 18 63.5
t36 54.5t50 40.5t61 23.5v2q-26 7 -45 23t-31 37t-16.5 46t-1.5 50z" />
    <glyph glyph-name="nine" unicode="9" 
d="M326 348q32 0 61.5 10.5t52.5 30t39 47t21 62.5q5 34 -3 62t-26 47.5t-44.5 30t-58.5 10.5t-61.5 -10.5t-52.5 -30t-39 -47.5t-21 -62q-5 -35 3 -62.5t26 -47t44.5 -30t58.5 -10.5zM393 295l-2 2q-21 -11 -48.5 -16t-49.5 -5q-46 0 -83 16t-61.5 45.5t-35 70t-3.5 90.5
q7 52 31 93t60 69.5t81.5 44t95.5 15.5t91.5 -15.5t69 -44t40 -69.5t5.5 -93q-9 -62 -34.5 -107.5t-60.5 -91.5l-229 -299h-98z" />
    <glyph glyph-name="colon" unicode=":" horiz-adv-x="278" 
d="M154 114q25 0 40.5 -17.5t11.5 -42.5t-24.5 -42.5t-43.5 -17.5t-39.5 17.5t-12.5 42.5t23.5 42.5t44.5 17.5zM205 480q25 0 40.5 -17.5t11.5 -42.5t-24.5 -42.5t-43.5 -17.5t-39.5 17.5t-12.5 42.5t23.5 42.5t44.5 17.5z" />
    <glyph glyph-name="semicolon" unicode=";" horiz-adv-x="278" 
d="M271 480q25 0 38.5 -17.5t5.5 -42.5q-4 -12 -12 -23t-18.5 -19.5t-22 -13t-23.5 -4.5q-23 0 -37.5 17.5t-6.5 42.5t29.5 42.5t46.5 17.5zM89 -138h-77l136 240h91z" />
    <glyph glyph-name="semicolon" unicode="&#x37e;" horiz-adv-x="278" 
d="M271 480q25 0 38.5 -17.5t5.5 -42.5q-4 -12 -12 -23t-18.5 -19.5t-22 -13t-23.5 -4.5q-23 0 -37.5 17.5t-6.5 42.5t29.5 42.5t46.5 17.5zM89 -138h-77l136 240h91z" />
    <glyph glyph-name="less" unicode="&#x3c;" horiz-adv-x="666" 
d="M663 498l-468 -195l414 -195l-10 -66l-489 232l8 58l554 232z" />
    <glyph glyph-name="equal" unicode="=" horiz-adv-x="666" 
d="M107 258h522l-9 -66h-522zM129 414h522l-9 -66h-522z" />
    <glyph glyph-name="greater" unicode="&#x3e;" horiz-adv-x="666" 
d="M87 108l468 195l-414 195l9 66l490 -232l-8 -58l-555 -232z" />
    <glyph glyph-name="question" unicode="?" horiz-adv-x="482" 
d="M246 114q25 0 40.5 -17.5t11.5 -42.5t-24.5 -42.5t-43.5 -17.5t-39.5 17.5t-12.5 42.5t23.5 42.5t44.5 17.5zM225 261q4 28 10 46t16 32.5t25 28.5t37 34q18 16 35.5 31.5t32.5 32.5t25.5 36t13.5 43q7 48 -16.5 78.5t-73.5 30.5q-51 0 -87.5 -30t-50.5 -79l-88 10
q12 41 35.5 73t54.5 53.5t68.5 33t78.5 11.5t75 -11.5t57 -34t33.5 -56t4.5 -76.5q-5 -33 -18 -59.5t-31.5 -49t-42.5 -43t-49 -41.5q-18 -15 -29 -26t-18 -23t-10.5 -26.5t-6.5 -35.5l-6 -46h-84z" />
    <glyph glyph-name="at" unicode="@" horiz-adv-x="800" 
d="M572 267q-13 -25 -16 -50q-3 -20 21 -20t51.5 18.5t52 49t42.5 69.5t24 81q8 59 -8 106.5t-49.5 81t-80 51.5t-98.5 18q-65 0 -124.5 -25.5t-107 -69t-79.5 -101.5t-41 -122q-9 -67 7.5 -125t53 -101t89 -67.5t114.5 -24.5q37 0 74.5 8.5t72.5 24.5t66 38.5t55 49.5h63
q-30 -41 -68 -73.5t-82 -55t-92 -34.5t-97 -12q-79 0 -143 29t-107.5 79.5t-63 118t-8.5 145.5t50 146t96.5 118t130 79t149.5 29q69 0 127 -22.5t98.5 -63t59.5 -97t10 -123.5q-9 -65 -39.5 -118t-71 -91t-84.5 -59t-79 -21q-26 0 -42 16t-13 50h-2q-27 -27 -58 -46.5
t-76 -19.5q-32 0 -56.5 12t-40 33t-22 49t-1.5 61q7 52 31 103t60 91t82.5 64.5t99.5 24.5q35 0 62 -18.5t37 -63.5h2l27 63h65zM302 293q-5 -42 15.5 -69t58.5 -27q33 0 64 21.5t56.5 53.5t42.5 69t21 68q3 19 -1 36t-13.5 30t-23 20.5t-29.5 7.5q-35 0 -67.5 -20.5
t-58.5 -52t-43.5 -68t-21.5 -69.5z" />
    <glyph glyph-name="A" unicode="A" horiz-adv-x="704" 
d="M439 600h-2l-195 -348h289zM416 708h79l203 -708h-98l-48 174h-354l-97 -174h-95z" />
    <glyph glyph-name="B" unicode="B" horiz-adv-x="630" 
d="M182 78h142q31 0 62.5 6.5t58 21t44.5 38t23 57.5q5 37 -6 62t-32.5 40t-51 21t-61.5 6h-144zM228 408h116q30 0 59.5 4t54 16.5t41.5 35t22 59.5q4 33 -6 53.5t-29.5 32.5t-46.5 16.5t-55 4.5h-125zM186 708h216q44 0 85 -9t71 -29.5t46 -53.5t9 -82
q-9 -62 -47.5 -102.5t-98.5 -57.5l-1 -2q34 -3 61 -17.5t45.5 -37.5t26.5 -53.5t3 -65.5q-8 -59 -38 -97t-72.5 -60.5t-93 -31.5t-99.5 -9h-211z" />
    <glyph glyph-name="C" unicode="C" horiz-adv-x="704" 
d="M662 562q-26 43 -70 64.5t-95 21.5q-59 0 -112 -24t-94.5 -64.5t-69 -94t-35.5 -111.5q-9 -62 3.5 -115.5t42.5 -93t76.5 -62.5t106.5 -23q65 0 119.5 25.5t99.5 73.5l55 -53q-57 -64 -128.5 -94t-156.5 -30q-76 0 -138 28t-103.5 77.5t-59.5 117.5t-7 149q11 78 47 146
t91 118t125 79t149 29q72 0 134.5 -26t99.5 -85z" />
    <glyph glyph-name="D" unicode="D" horiz-adv-x="741" 
d="M169 78h160q61 0 115.5 16t97.5 49.5t72 85.5t39 125t-4.5 125t-48 85.5t-83.5 49.5t-111 16h-160zM173 708h272q52 0 110 -18.5t104.5 -60.5t71.5 -109.5t12 -165.5q-14 -98 -58 -165.5t-102 -109.5t-121 -60.5t-115 -18.5h-272z" />
    <glyph glyph-name="E" unicode="E" horiz-adv-x="593" 
d="M186 708h445l-11 -78h-361l-31 -222h337l-11 -78h-337l-35 -252h379l-10 -78h-463z" />
    <glyph glyph-name="F" unicode="F" 
d="M186 708h439l-11 -78h-355l-32 -234h330l-11 -78h-330l-44 -318h-84z" />
    <glyph glyph-name="G" unicode="G" horiz-adv-x="778" 
d="M696 48q-66 -34 -135.5 -50t-138.5 -16q-83 0 -148.5 27t-109 76t-62 117.5t-6.5 151.5q12 84 51 152.5t97.5 117t131.5 75.5t153 27q70 0 131.5 -21t105.5 -72l-73 -66q-30 39 -78.5 60t-102.5 21q-61 0 -116 -22t-98.5 -61t-73 -93t-38.5 -118q-9 -63 5 -117t47 -93.5
t84 -61.5t116 -22q43 0 91.5 10.5t90.5 30.5l30 217h-163l11 78h247z" />
    <glyph glyph-name="H" unicode="H" horiz-adv-x="722" 
d="M186 708h84l-42 -300h378l42 300h84l-98 -708h-84l45 330h-378l-45 -330h-84z" />
    <glyph glyph-name="I" unicode="I" horiz-adv-x="260" 
d="M186 708h84l-98 -708h-84z" />
    <glyph glyph-name="J" unicode="J" horiz-adv-x="482" 
d="M419 183q-5 -36 -20.5 -71.5t-43 -64.5t-68.5 -47t-98 -18q-75 0 -120 38t-48 114l87 17q2 -42 25 -66.5t68 -24.5q36 0 60.5 13t40.5 34t24.5 48.5t12.5 56.5l69 496h84z" />
    <glyph glyph-name="K" unicode="K" horiz-adv-x="630" 
d="M186 708h84l-43 -306h12l365 306h121l-395 -323l314 -385h-123l-287 360h-12l-50 -360h-84z" />
    <glyph glyph-name="L" unicode="L" horiz-adv-x="500" 
d="M186 708h84l-88 -630h324l-10 -78h-408z" />
    <glyph glyph-name="M" unicode="M" horiz-adv-x="907" 
d="M186 708h125l163 -555h2l319 555h122l-98 -708h-84l82 594h-2l-336 -594h-51l-172 594h-2l-82 -594h-84z" />
    <glyph glyph-name="N" unicode="N" horiz-adv-x="778" 
d="M186 708h106l328 -588h2l82 588h84l-98 -708h-106l-329 588h-2l-81 -588h-84z" />
    <glyph glyph-name="O" unicode="O" horiz-adv-x="834" 
d="M425 60q62 0 117 23t97.5 63t70 93.5t36.5 114.5q8 61 -5 114.5t-44 93.5t-79.5 63t-110.5 23t-117 -23t-97.5 -63t-70.5 -93.5t-36 -114.5q-9 -61 4 -114.5t44.5 -93.5t80 -63t110.5 -23zM414 -18q-81 0 -145 28t-106 77.5t-60 118t-7 148.5t48 148.5t93.5 118t128 77.5
t152.5 28t145 -28t106 -77.5t60 -118t7 -148.5t-48 -148.5t-93.5 -118t-128 -77.5t-152.5 -28z" />
    <glyph glyph-name="P" unicode="P" horiz-adv-x="593" 
d="M227 396h142q63 0 106.5 28.5t51.5 88.5t-27.5 88.5t-98.5 28.5h-142zM186 708h210q49 0 92.5 -9.5t74.5 -32t46.5 -60t7.5 -92.5q-8 -58 -35.5 -96t-64.5 -60t-79.5 -31t-79.5 -9h-142l-44 -318h-84z" />
    <glyph glyph-name="Q" unicode="Q" horiz-adv-x="834" 
d="M187 363q-8 -60 5.5 -112t45 -90.5t78 -60.5t105.5 -22q58 0 111.5 22t95.5 60.5t70.5 90.5t36.5 112q8 59 -5 111t-44 90.5t-78 61t-107 22.5t-113 -22.5t-95 -61t-70 -90.5t-36 -111zM822 0h-411q-78 0 -140.5 28t-105 76.5t-61 115t-7.5 143.5t48 143.5t92.5 115
t126 76.5t148.5 28t140.5 -28t104.5 -76.5t60.5 -115t7.5 -143.5q-6 -45 -24.5 -89.5t-46 -83t-63.5 -69t-78 -47.5v-2h219z" />
    <glyph glyph-name="R" unicode="R" horiz-adv-x="611" 
d="M227 396h75q35 0 73 2t71 13t56.5 34.5t29.5 67.5q5 38 -7 61t-34.5 35.5t-52.5 16.5t-61 4h-118zM186 708h181q51 0 101 -6t87 -26t56.5 -58.5t10.5 -104.5q-11 -78 -64.5 -126t-138.5 -61l156 -326h-103l-148 318h-108l-44 -318h-84z" />
    <glyph glyph-name="S" unicode="S" 
d="M505 583q-17 34 -49.5 49.5t-70.5 15.5q-28 0 -56 -7t-51.5 -21t-40 -37t-20.5 -54q-3 -24 1.5 -42.5t20 -33.5t42 -28t67.5 -26q39 -13 75.5 -28t62.5 -38t39 -57.5t6 -86.5q-8 -53 -34 -92t-64.5 -64.5t-85 -38t-94.5 -12.5q-31 0 -61.5 5.5t-57.5 17t-49 30t-36 45.5
l80 59q17 -39 55.5 -59t84.5 -20q27 0 55.5 8t53 23.5t41.5 38.5t21 53q4 33 -4 53.5t-29 35.5t-54 27t-78 28q-36 12 -66 27.5t-50.5 38t-29.5 54t-3 75.5q7 51 32.5 89t63 63.5t82.5 38.5t92 13q60 0 106.5 -18.5t79.5 -64.5z" />
    <glyph glyph-name="T" unicode="T" horiz-adv-x="574" 
d="M650 630h-234l-87 -630h-84l87 630h-234l11 78h552z" />
    <glyph glyph-name="U" unicode="U" horiz-adv-x="704" 
d="M656 270q-8 -58 -29.5 -110t-59 -91.5t-91.5 -63t-127 -23.5t-120.5 23.5t-74 63t-33.5 91.5t1 110l61 438h84l-59 -426q-6 -43 -3 -83t20 -71t49.5 -49.5t85.5 -18.5t90.5 18.5t63 49.5t40 71t20.5 83l59 426h84z" />
    <glyph glyph-name="V" unicode="V" horiz-adv-x="611" 
d="M89 708h95l137 -582h2l306 582h89l-375 -708h-81z" />
    <glyph glyph-name="W" unicode="W" horiz-adv-x="963" 
d="M104 708h93l79 -588h2l256 588h94l91 -588h2l246 588h88l-306 -708h-91l-92 600h-2l-259 -600h-92z" />
    <glyph glyph-name="X" unicode="X" horiz-adv-x="630" 
d="M306 373l-191 335h108l152 -277l228 277h105l-285 -335l210 -373h-111l-167 314l-254 -314h-104z" />
    <glyph glyph-name="Y" unicode="Y" horiz-adv-x="594" 
d="M297 305l-208 403h107l154 -320l250 320h101l-320 -403l-42 -305h-84z" />
    <glyph glyph-name="Z" unicode="Z" horiz-adv-x="574" 
d="M39 75l486 555h-403l11 78h505l-10 -72l-487 -558h414l-10 -78h-516z" />
    <glyph glyph-name="bracketleft" unicode="[" horiz-adv-x="259" 
d="M286 672h-93l-107 -768h93l-8 -60h-165l123 888h165z" />
    <glyph glyph-name="backslash" unicode="\" horiz-adv-x="370" 
d="M104 726l66 24l194 -768l-66 -25z" />
    <glyph glyph-name="bracketright" unicode="]" horiz-adv-x="259" 
d="M167 732h165l-123 -888h-165l8 60h93l107 768h-93z" />
    <glyph glyph-name="asciicircum" unicode="^" horiz-adv-x="666" 
d="M401 708h60l163 -433h-74l-131 349l-227 -349h-74z" />
    <glyph glyph-name="underscore" unicode="_" horiz-adv-x="500" 
d="M-10 -75h499l-7 -50h-499z" />
    <glyph glyph-name="grave" unicode="`" horiz-adv-x="240" 
d="M267 564h-71l-123 144h110z" />
    <glyph glyph-name="a" unicode="a" horiz-adv-x="519" 
d="M325 225q-75 0 -122 -21t-54 -69q-6 -44 21 -62.5t71 -18.5q34 0 61 11.5t47 30.5t32.5 44.5t17.5 54.5l4 30h-78zM124 408q42 37 93.5 54.5t102.5 17.5q104 0 143.5 -49t25.5 -149l-28 -201q-3 -20 -4 -41.5t0 -39.5h-75q-2 16 0 35.5t4 34.5h-2q-28 -36 -69.5 -59
t-95.5 -23q-36 0 -66 9t-51.5 26.5t-32 43.5t-5.5 60q8 58 42.5 91t81.5 49t99 20t95 4h30l2 14q7 51 -20 77t-82 26q-38 0 -76 -12.5t-70 -38.5z" />
    <glyph glyph-name="b" unicode="b" horiz-adv-x="611" 
d="M180 234q-5 -37 2 -68.5t25.5 -55t47.5 -37t67 -13.5t70.5 13.5t57 37t41 55t21.5 68.5t-2 68.5t-25.5 55t-47.5 37t-67 13.5t-70.5 -13.5t-57 -37t-41 -55t-21.5 -68.5zM175 756h78l-50 -356h2q38 38 83 59t96 21q55 0 98 -18.5t70.5 -51.5t39 -78t4.5 -98t-31.5 -98
t-60.5 -78t-81.5 -51.5t-94.5 -18.5q-63 0 -106.5 27.5t-60.5 67.5h-2l-11 -83h-78z" />
    <glyph glyph-name="c" unicode="c" horiz-adv-x="482" 
d="M455 351q-20 30 -47.5 43.5t-62.5 13.5q-39 0 -70.5 -13.5t-55 -37.5t-37.5 -55.5t-19 -67.5t2 -67.5t24.5 -55.5t44.5 -37.5t63 -13.5q76 0 127 58l50 -55q-39 -39 -87.5 -57t-99.5 -18q-54 0 -96.5 18t-69.5 51t-38.5 78t-3.5 99q7 53 31 98t60.5 78t83.5 51.5
t101 18.5q52 0 96 -18t74 -56z" />
    <glyph glyph-name="d" unicode="d" horiz-adv-x="611" 
d="M495 234q5 37 -2 68.5t-25.5 55t-47.5 37t-67 13.5t-70.5 -13.5t-57 -37t-41 -55t-21.5 -68.5t2 -68.5t25.5 -55t47.5 -37t67 -13.5t70.5 13.5t57 37t41 55t21.5 68.5zM474 83h-2q-27 -40 -78.5 -67.5t-114.5 -27.5q-49 0 -89 18.5t-67 51.5t-39 78t-5 98t31.5 98t61 78
t84.5 51.5t103 18.5q51 0 90.5 -21t66.5 -59h2l50 356h78l-105 -756h-78z" />
    <glyph glyph-name="e" unicode="e" 
d="M463 276q6 60 -26 96t-97 36t-110 -36t-61 -96h294zM503 85q-49 -54 -102 -75.5t-119 -21.5q-55 0 -96.5 19.5t-67.5 52.5t-36 78t-3 96q7 54 31.5 99.5t61 78t83 50.5t98.5 18q49 0 88 -16.5t64 -48t34.5 -77t1.5 -103.5l-3 -25h-378q-2 -30 6.5 -57.5t25.5 -48
t42.5 -32.5t57.5 -12q51 0 88.5 18t70.5 53z" />
    <glyph glyph-name="f" unicode="f" horiz-adv-x="315" 
d="M169 402h-102l10 66h102l14 105q6 43 19 78.5t36 61.5t57 40.5t81 14.5q15 0 31.5 -3t27.5 -9l-21 -70q-12 5 -25 7.5t-27 2.5q-30 0 -48.5 -10.5t-29 -29t-16 -44.5t-9.5 -56l-12 -88h114l-10 -66h-114l-55 -402h-78z" />
    <glyph glyph-name="g" unicode="g" horiz-adv-x="611" 
d="M163 234q-5 -36 4 -66.5t28 -53t47.5 -35.5t62.5 -13q40 0 73 14t57.5 37.5t39.5 54t20 64.5q5 38 -2.5 69.5t-26.5 54.5t-48 35.5t-66 12.5t-69 -13.5t-57 -37t-41.5 -55t-21.5 -68.5zM543 21q-17 -128 -92 -194.5t-199 -66.5q-69 0 -122 20t-96 69l65 64
q32 -40 70.5 -60.5t92.5 -20.5q52 0 88.5 15.5t60.5 42t36.5 60.5t17.5 71l9 60h-2q-35 -45 -82.5 -66t-94.5 -21q-55 0 -98.5 18t-72 50t-40.5 76t-5 96q8 57 32 103t61.5 77.5t85.5 48.5t104 17q48 0 91.5 -22.5t60.5 -69.5h2l12 80h78z" />
    <glyph glyph-name="h" unicode="h" 
d="M179 756h78l-49 -353h2q10 14 26 27.5t36.5 24.5t45.5 18t52 7q46 0 77.5 -14t50 -39t24.5 -60.5t0 -77.5l-40 -289h-78l39 281q8 59 -13.5 93t-76.5 34q-76 0 -117.5 -50t-52.5 -130l-31 -228h-78z" />
    <glyph glyph-name="i" unicode="i" horiz-adv-x="240" 
d="M153 651q3 23 22 40t43 17t38 -17t11 -40q-3 -25 -21.5 -41t-43.5 -16t-38.5 16t-10.5 41zM146 468h78l-65 -468h-78z" />
    <glyph glyph-name="j" unicode="j" horiz-adv-x="240" 
d="M153 651q3 23 22 40t43 17t38 -17t11 -40q-3 -25 -21.5 -41t-43.5 -16t-38.5 16t-10.5 41zM144 -105q-3 -18 -11.5 -41.5t-26.5 -44t-47 -35t-72 -14.5q-14 0 -27.5 2t-25.5 8l19 68q18 -6 37 -6q22 0 36 8t23 21.5t14 31.5t8 38l75 537h78z" />
    <glyph glyph-name="k" unicode="k" horiz-adv-x="500" 
d="M179 756h78l-69 -494l242 206h111l-256 -213l214 -255h-115l-198 246l-34 -246h-78z" />
    <glyph glyph-name="l" unicode="l" horiz-adv-x="240" 
d="M186 756h78l-105 -756h-78z" />
    <glyph glyph-name="m" unicode="m" horiz-adv-x="852" 
d="M123 357q5 32 6.5 60t5.5 51h74q-3 -19 -4.5 -38t-4.5 -39h2q10 17 26.5 33t38.5 28.5t48 20t55 7.5q38 0 62.5 -9.5t39.5 -23t22.5 -29t11.5 -27.5q32 42 69 65.5t91 23.5q50 0 82.5 -13.5t49.5 -39t21 -62t-2 -81.5l-39 -284h-78l38 280q4 24 2 47t-12.5 41t-31 29
t-54.5 11q-25 0 -48 -10t-42 -28t-32.5 -43.5t-17.5 -56.5l-37 -270h-78l36 265q11 78 -5.5 110.5t-64.5 32.5q-76 0 -117.5 -50t-52.5 -130l-31 -228h-78z" />
    <glyph glyph-name="n" unicode="n" 
d="M123 357q5 32 6.5 60t5.5 51h74q-3 -19 -4.5 -38t-4.5 -39h2q10 17 26.5 33t38.5 28.5t48 20t55 7.5q46 0 77.5 -14t50 -39t24.5 -60.5t0 -77.5l-40 -289h-78l39 281q8 59 -13.5 93t-76.5 34q-76 0 -117.5 -50t-52.5 -130l-31 -228h-78z" />
    <glyph glyph-name="o" unicode="o" horiz-adv-x="594" 
d="M163 234q-5 -37 2 -68.5t25.5 -55t47.5 -37t67 -13.5t70.5 13.5t57 37t41 55t21.5 68.5t-2 68.5t-25.5 55t-47.5 37t-67 13.5t-70.5 -13.5t-57 -37t-41 -55t-21.5 -68.5zM79 234q7 55 32.5 100t63 77.5t86 50.5t102.5 18t97.5 -18t72 -50.5t41 -77.5t5.5 -100
q-8 -55 -33 -100t-62.5 -77.5t-86 -50.5t-102.5 -18t-97.5 18t-72 50.5t-41.5 77.5t-5 100z" />
    <glyph glyph-name="p" unicode="p" horiz-adv-x="611" 
d="M180 234q-5 -37 2 -68.5t25.5 -55t47.5 -37t67 -13.5t70.5 13.5t57 37t41 55t21.5 68.5t-2 68.5t-25.5 55t-47.5 37t-67 13.5t-70.5 -13.5t-57 -37t-41 -55t-21.5 -68.5zM135 468h78l-10 -68h2q38 38 83 59t96 21q55 0 98 -18.5t70.5 -51.5t39 -78t4.5 -98t-31.5 -98
t-60.5 -78t-81.5 -51.5t-94.5 -18.5q-63 0 -106.5 27.5t-60.5 67.5h-2l-43 -311h-78z" />
    <glyph glyph-name="q" unicode="q" horiz-adv-x="611" 
d="M495 234q5 37 -2 68.5t-25.5 55t-47.5 37t-67 13.5t-70.5 -13.5t-57 -37t-41 -55t-21.5 -68.5t2 -68.5t25.5 -55t47.5 -37t67 -13.5t70.5 13.5t57 37t41 55t21.5 68.5zM509 -228h-78l41 296h-2q-38 -38 -83 -59t-96 -21q-55 0 -98 18.5t-70.5 51.5t-39.5 78t-4 98
q7 52 31.5 97t60.5 78t81.5 52t94.5 19q63 0 106.5 -27.5t60.5 -67.5h2l12 83h78z" />
    <glyph glyph-name="r" unicode="r" horiz-adv-x="352" 
d="M123 357q5 32 6.5 60t5.5 51h74q-3 -19 -4.5 -38t-4.5 -39h2q10 17 26.5 33t38.5 28.5t48 20t55 7.5q8 0 16 -1t16 -4l-16 -79q-20 6 -42 6q-72 0 -111 -46.5t-50 -127.5l-31 -228h-78z" />
    <glyph glyph-name="s" unicode="s" horiz-adv-x="426" 
d="M101 123q19 -29 44 -46t67 -17q18 0 37 4t35 13t27 22.5t14 32.5t-4 31t-20 20.5t-30.5 13.5t-35.5 9q-32 7 -61 16t-49.5 23.5t-30.5 37.5t-5 59q5 34 23.5 60t45.5 43t59.5 26t65.5 9q50 0 90 -20t57 -65l-71 -43q-11 25 -33.5 40.5t-57.5 15.5q-16 0 -33 -4t-31.5 -12
t-24.5 -20.5t-12 -28.5q-2 -15 6.5 -25.5t23.5 -18.5t35.5 -14t43.5 -10q30 -6 56.5 -15.5t45 -25.5t27.5 -40t4 -59q-5 -40 -25 -68t-49 -45.5t-63.5 -25.5t-69.5 -8q-60 0 -101 18.5t-69 68.5z" />
    <glyph glyph-name="t" unicode="t" horiz-adv-x="352" 
d="M385 402h-138l-32 -234q-3 -23 -4.5 -42.5t3 -34t17.5 -23t39 -8.5q17 0 35.5 4t35.5 12l-7 -71q-21 -9 -46 -13t-47 -4q-42 0 -65.5 11t-34.5 31t-11.5 49.5t4.5 65.5l35 257h-102l10 66h102l18 133h78l-18 -133h138z" />
    <glyph glyph-name="u" unicode="u" 
d="M497 111q-5 -32 -6.5 -60t-4.5 -51h-74l4 38t4 39h-2q-10 -17 -27 -33t-38.5 -28.5t-47.5 -20t-55 -7.5q-46 0 -77.5 14t-50 39t-24.5 60.5t0 77.5l41 289h78l-39 -281q-8 -59 13 -93t76 -34q76 0 117.5 50t52.5 130l32 228h78z" />
    <glyph glyph-name="v" unicode="v" horiz-adv-x="482" 
d="M287 0h-86l-126 468h91l95 -367h2l190 367h84z" />
    <glyph glyph-name="w" unicode="w" horiz-adv-x="741" 
d="M576 0h-77l-83 360h-2l-168 -360h-80l-87 468h86l57 -360h2l171 360h82l73 -360h2l156 360h84z" />
    <glyph glyph-name="x" unicode="x" horiz-adv-x="500" 
d="M230 252l-138 216h102l100 -168l141 168h95l-191 -216l158 -252h-103l-120 202l-174 -202h-97z" />
    <glyph glyph-name="y" unicode="y" horiz-adv-x="482" 
d="M231 -107q-16 -30 -32 -54.5t-36 -42t-46 -27t-61 -9.5q-17 0 -35 2t-32 10l18 68q20 -8 54 -8q38 0 59 21t39 56l44 88l-128 471h91l94 -367h2l190 367h85z" />
    <glyph glyph-name="z" unicode="z" horiz-adv-x="444" 
d="M38 61l322 341h-263l10 66h365l-9 -60l-322 -342h282l-9 -66h-384z" />
    <glyph glyph-name="braceleft" unicode="{" horiz-adv-x="333" 
d="M387 672h-54q-16 0 -26.5 -6.5t-17 -18t-10.5 -25.5t-6 -29l-24 -176q-5 -34 -18.5 -57.5t-29.5 -38.5t-31.5 -22.5t-24.5 -9.5l-1 -2q9 -1 22.5 -7.5t25.5 -21t18.5 -39t1.5 -61.5l-24 -175q-2 -15 -2 -29t3.5 -25t12 -18t24.5 -7h54l-8 -60h-70q-19 0 -36.5 8t-30.5 24
t-19 39.5t-2 53.5l25 175q4 27 -1 48t-15 36t-24.5 22.5t-30.5 7.5l9 60q16 0 32.5 8t30.5 22.5t24.5 35.5t13.5 47l25 176q4 30 17 53.5t30.5 39.5t37 24t37.5 8h70z" />
    <glyph glyph-name="bar" unicode="|" horiz-adv-x="222" 
d="M248 750l-139 -1000h-66l139 1000h66z" />
    <glyph glyph-name="braceright" unicode="}" horiz-adv-x="333" 
d="M140 732h70q18 0 35.5 -8t30.5 -24t19.5 -39.5t2.5 -53.5l-25 -176q-3 -26 1.5 -47t15 -35.5t24.5 -22.5t30 -8l-9 -60q-32 0 -62.5 -30t-38.5 -84l-25 -175q-4 -30 -16.5 -53.5t-30 -39.5t-37 -24t-38.5 -8h-70l8 60h54q16 0 26.5 7t17.5 18t10.5 25t5.5 29l24 175
q5 37 19 61.5t30 39t31 21t24 7.5l1 2q-8 2 -21.5 9.5t-25.5 22.5t-19 38.5t-2 57.5l24 176q2 15 2.5 29t-3.5 25.5t-12.5 18t-24.5 6.5h-54z" />
    <glyph glyph-name="asciitilde" unicode="~" horiz-adv-x="666" 
d="M608 324q-14 -16 -28.5 -31.5t-31.5 -28t-36.5 -20.5t-42.5 -8q-27 0 -50.5 9.5t-46.5 20.5q-27 13 -52.5 25.5t-57.5 12.5q-33 0 -55.5 -22t-38.5 -48l-26 48q13 16 27.5 31.5t31 28t36 20.5t42.5 8q27 0 51 -9.5t47 -20.5q26 -13 52 -25.5t58 -12.5q16 0 30 6t25.5 16
t21 22.5t17.5 25.5z" />
    <glyph glyph-name="Euro" 
d="M674 614q-19 17 -48 27t-70 10q-67 0 -128 -43.5t-107 -128.5h277l-31 -59h-273q-7 -18 -14 -37.5t-13 -39.5q-3 -14 -6.5 -27.5t-5.5 -27.5h242l-32 -57h-219q-10 -83 18 -129.5t101 -46.5q42 0 78.5 18t65.5 44l34 -45q-18 -18 -41 -33t-49 -26.5t-54.5 -18t-57.5 -6.5
q-102 0 -148 61.5t-33 181.5h-73l34 57h48q2 14 5.5 28.5t8.5 29.5q5 20 11 38.5t13 35.5h-66l35 59h58q30 59 69 104t83.5 75.5t92.5 46t98 15.5q42 0 80 -11t58 -25z" />
    <glyph glyph-name="Euro" unicode="&#x20ac;" 
d="M674 614q-19 17 -48 27t-70 10q-67 0 -128 -43.5t-107 -128.5h277l-31 -59h-273q-7 -18 -14 -37.5t-13 -39.5q-3 -14 -6.5 -27.5t-5.5 -27.5h242l-32 -57h-219q-10 -83 18 -129.5t101 -46.5q42 0 78.5 18t65.5 44l34 -45q-18 -18 -41 -33t-49 -26.5t-54.5 -18t-57.5 -6.5
q-102 0 -148 61.5t-33 181.5h-73l34 57h48q2 14 5.5 28.5t8.5 29.5q5 20 11 38.5t13 35.5h-66l35 59h58q30 59 69 104t83.5 75.5t92.5 46t98 15.5q42 0 80 -11t58 -25z" />
    <glyph glyph-name="Zcaron" horiz-adv-x="574" 
d="M39 75l486 555h-403l11 78h505l-10 -72l-487 -558h414l-10 -78h-516zM437 758h-91l-91 144h81l64 -102l91 102h76z" />
    <glyph glyph-name="Zcaron" unicode="&#x17d;" horiz-adv-x="574" 
d="M39 75l486 555h-403l11 78h505l-10 -72l-487 -558h414l-10 -78h-516zM437 758h-91l-91 144h81l64 -102l91 102h76z" />
    <glyph glyph-name="zcaron" horiz-adv-x="444" 
d="M38 61l322 341h-263l10 66h365l-9 -60l-322 -342h282l-9 -66h-384zM348 580h-91l-91 144h81l64 -102l91 102h76z" />
    <glyph glyph-name="zcaron" unicode="&#x17e;" horiz-adv-x="444" 
d="M38 61l322 341h-263l10 66h365l-9 -60l-322 -342h282l-9 -66h-384zM348 580h-91l-91 144h81l64 -102l91 102h76z" />
    <glyph glyph-name="exclamdown" unicode="&#xa1;" horiz-adv-x="278" 
d="M190 372q-25 0 -40 17.5t-11 42.5q3 25 24 42.5t44 17.5t39 -17.5t13 -42.5q-4 -25 -24 -42.5t-45 -17.5zM137 288h84l-71 -510h-84z" />
    <glyph glyph-name="cent" unicode="&#xa2;" 
d="M275 -12q-47 6 -83 26.5t-59 52.5t-32 74.5t-2 92.5q7 49 28 91.5t53 74.5t73.5 52t89.5 25l9 69h48l-9 -66q48 -2 87.5 -20.5t66.5 -53.5l-70 -55q-35 51 -94 57l-48 -348q65 4 111 58l50 -55q-35 -36 -79.5 -54t-91.5 -21l-9 -66h-48zM333 406q-65 -12 -103 -60
t-47 -112t18 -111.5t84 -61.5z" />
    <glyph glyph-name="sterling" unicode="&#xa3;" 
d="M67 78h108l35 252h-96l10 66h96l11 80q9 65 32 111.5t56 76t74 43t86 13.5t84.5 -15t67.5 -47l-63 -59q-20 23 -44 36t-57 13q-37 0 -63.5 -12.5t-44.5 -35.5t-28.5 -55t-16.5 -71l-10 -78h162l-10 -66h-162l-35 -252h246l-10 -78h-438z" />
    <glyph glyph-name="currency" unicode="&#xa4;" 
d="M110 203q-45 68 -33 151q12 88 75 152l-47 54l51 44l46 -53q37 26 77.5 39.5t82.5 13.5t78.5 -13.5t65.5 -39.5l62 53l37 -44l-61 -54q45 -65 33 -152q-12 -84 -75 -151l46 -55l-50 -44l-46 55q-37 -26 -77.5 -40.5t-82.5 -14.5t-78.5 14.5t-65.5 40.5l-62 -55l-38 44z
M155 354q-5 -35 4 -67t29 -57t49.5 -39.5t64.5 -14.5t68.5 14.5t60.5 39.5t45 57t23 67q5 36 -4 68.5t-29 57t-49.5 38.5t-64.5 14t-68.5 -14t-60.5 -38.5t-45 -57t-23 -68.5z" />
    <glyph glyph-name="yen" unicode="&#xa5;" 
d="M260 174h-159l8 60h159l10 71l-7 16h-150l9 60h114l-146 327h100l133 -327l223 327h100l-236 -327h114l-9 -60h-150l-11 -16l-10 -71h159l-8 -60h-159l-24 -174h-84z" />
    <glyph glyph-name="brokenbar" unicode="&#xa6;" horiz-adv-x="222" 
d="M168 175l-49 -350h-66l49 350h66zM237 675l-48 -350h-66l48 350h66z" />
    <glyph glyph-name="section" unicode="&#xa7;" 
d="M350 183q26 11 49.5 34.5t27.5 52.5q3 21 -4 37t-19.5 29t-28 22.5t-30.5 17.5l-54 29q-15 -6 -31.5 -13t-30 -17t-23 -23.5t-12.5 -32.5q-3 -20 3 -34t17 -25t25 -19t28 -15zM470 591q-8 33 -35 48t-59 15q-19 0 -38.5 -5t-36 -15.5t-28 -27t-14.5 -38.5q-7 -49 34 -72
l91 -49q24 -12 49 -27t44 -34.5t29.5 -44.5t6.5 -59q-7 -46 -35.5 -79t-69.5 -54q29 -21 43.5 -51t8.5 -72q-6 -43 -28 -75t-53.5 -53t-70 -31.5t-76.5 -10.5q-65 0 -114 29.5t-65 93.5l82 36q7 -46 37.5 -66.5t75.5 -20.5q21 0 41.5 5t37 16.5t28 29t14.5 41.5
q3 21 -4.5 36.5t-21 27t-29.5 20t-31 16.5l-113 64q-32 18 -46.5 50t-9.5 72q8 53 41 86t80 54q-32 20 -49.5 48.5t-11.5 69.5q6 40 26.5 70.5t50.5 50.5t66 30.5t72 10.5q26 0 51.5 -5.5t47 -16.5t38 -29t24.5 -43z" />
    <glyph glyph-name="dieresis" unicode="&#xa8;" horiz-adv-x="240" 
d="M314 684q23 0 36 -16t10 -38q-3 -23 -20.5 -38.5t-40.5 -15.5t-36.5 15.5t-10.5 38.5q3 22 21 38t41 16zM116 684q23 0 36 -16t10 -38q-3 -23 -20.5 -38.5t-40.5 -15.5t-36.5 15.5t-10.5 38.5q3 22 21 38t41 16z" />
    <glyph glyph-name="copyright" unicode="&#xa9;" horiz-adv-x="800" 
d="M143 354q-9 -68 6.5 -126t51 -100.5t88 -67t116.5 -24.5t123 24.5t106.5 67t79.5 100.5t41 126q9 67 -6.5 125.5t-51 101t-88 67t-116.5 24.5t-123.5 -24.5t-106.5 -67t-79 -101t-41 -125.5zM77 354q11 79 50 147.5t96.5 118t129.5 78t148 28.5t139.5 -28.5t107 -78
t64 -118t9.5 -147.5q-11 -80 -50.5 -148t-97 -117.5t-129 -78t-147.5 -28.5t-140 28.5t-107.5 78t-63.5 117.5t-9 148zM639 282q-13 -36 -34.5 -65t-48.5 -49t-58.5 -31t-65.5 -11q-51 0 -89.5 17.5t-63 48t-34.5 72t-3 90.5t27.5 91t53 72t75.5 47t94 17q35 0 65.5 -9.5
t52.5 -28.5t35 -47.5t13 -65.5h-61q-2 42 -31.5 69.5t-79.5 27.5q-37 0 -67.5 -13.5t-53.5 -36.5t-37.5 -54.5t-19.5 -68.5q-5 -35 1.5 -66.5t24 -55.5t44 -38t62.5 -14q50 0 87 29t50 73h62z" />
    <glyph glyph-name="ordfeminine" unicode="&#xaa;" horiz-adv-x="337" 
d="M269 559q-12 0 -28 -0.5t-31 -5t-26.5 -14t-13.5 -26.5t12.5 -26t39.5 -9q41 0 65.5 21t27.5 43l2 17h-48zM365 473q-2 -11 -2 -22v-21h-61q1 12 1.5 23t2.5 22h-2q-18 -28 -44.5 -39.5t-62.5 -11.5q-46 0 -72.5 21.5t-20.5 66.5q5 35 27 54t51.5 28t61.5 11t57 2h23
l2 14q2 14 -14 29.5t-53 15.5q-29 0 -55 -10t-38 -21l-25 42q26 22 59.5 32.5t66.5 10.5q72 0 98 -29.5t18 -89.5z" />
    <glyph glyph-name="guillemotleft" unicode="&#xab;" horiz-adv-x="500" 
d="M358 240l92 -178l-60 -36l-113 214l173 214l50 -36zM172 240l92 -178l-60 -36l-113 214l173 214l50 -36z" />
    <glyph glyph-name="logicalnot" unicode="&#xac;" horiz-adv-x="666" 
d="M129 414h522l-39 -278h-66l30 212h-456z" />
    <glyph glyph-name="registered" unicode="&#xae;" horiz-adv-x="800" 
d="M143 354q-9 -68 6.5 -126t51 -100.5t88 -67t116.5 -24.5t123 24.5t106.5 67t79.5 100.5t41 126q9 67 -6.5 125.5t-51 101t-88 67t-116.5 24.5t-123.5 -24.5t-106.5 -67t-79 -101t-41 -125.5zM77 354q11 79 50 147.5t96.5 118t129.5 78t148 28.5t139.5 -28.5t107 -78
t64 -118t9.5 -147.5q-11 -80 -50.5 -148t-97 -117.5t-129 -78t-147.5 -28.5t-140 28.5t-107.5 78t-63.5 117.5t-9 148zM376 378h68q22 0 43 1.5t38.5 8.5t29.5 22t15 41q3 22 -3.5 35.5t-19.5 20.5t-30 9t-34 2h-87zM337 572h164q78 0 110.5 -30.5t24.5 -93.5
q-4 -30 -16 -51t-29.5 -35.5t-39.5 -22t-47 -10.5l99 -192h-71l-92 187h-71l-26 -187h-66z" />
    <glyph glyph-name="macron" unicode="&#xaf;" horiz-adv-x="240" 
d="M424 600h-276l16 60h276z" />
    <glyph glyph-name="macron" unicode="&#x2c9;" horiz-adv-x="240" 
d="M424 600h-276l16 60h276z" />
    <glyph glyph-name="degree" unicode="&#xb0;" horiz-adv-x="400" 
d="M191 577q-2 -15 2 -31t14 -29t25 -21t35 -8t37.5 8t31 21t22.5 29t11 31t-2 31t-14 29t-25.5 21t-35.5 8t-37.5 -8t-31 -21t-22 -29t-10.5 -31zM137 577q4 30 19 56t37 45.5t49.5 30.5t57.5 11t54.5 -11t41 -30.5t24 -45.5t3.5 -56t-19 -56t-37 -45.5t-49.5 -30.5
t-57.5 -11t-54.5 11t-41 30.5t-24 45.5t-3.5 56z" />
    <glyph glyph-name="plusminus" unicode="&#xb1;" horiz-adv-x="666" 
d="M87 108h522l-10 -66h-522zM127 396h228l23 168h66l-23 -168h228l-10 -66h-228l-23 -168h-66l23 168h-228z" />
    <glyph glyph-name="twosuperior" unicode="&#xb2;" horiz-adv-x="361" 
d="M80 347l189 151q31 25 49 45t23 52q5 33 -14 52t-48 19q-32 0 -56.5 -18t-35.5 -49l-62 5q17 60 60.5 88t99.5 28q28 0 52.5 -7.5t41.5 -23t24.5 -39t3.5 -55.5q-3 -26 -13.5 -46t-25 -37.5t-33 -32.5t-37.5 -30l-134 -104l-1 -2h213l-7 -54h-297z" />
    <glyph glyph-name="threesuperior" unicode="&#xb3;" horiz-adv-x="361" 
d="M214 538h17q12 0 28.5 2.5t32 9.5t27 20.5t14.5 36.5q5 32 -14.5 45.5t-48.5 13.5q-26 0 -48.5 -9t-38.5 -33l-51 25q24 38 62.5 54.5t83.5 16.5q27 0 51 -7t40.5 -21t25 -35t4.5 -48q-5 -33 -30.5 -60t-61.5 -37l-1 -2q44 -6 64.5 -36t15.5 -70q-4 -30 -19.5 -52.5
t-38.5 -37.5t-51.5 -23t-59.5 -8q-52 0 -88.5 20.5t-45.5 71.5l57 23q2 -10 8 -21t16 -20t24.5 -14.5t35.5 -5.5q16 0 32.5 4.5t30 13t22.5 21.5t11 31q3 24 -5 39t-22.5 23.5t-33 11.5t-36.5 3h-16z" />
    <glyph glyph-name="acute" unicode="&#xb4;" horiz-adv-x="240" 
d="M253 708h110l-163 -144h-71z" />
    <glyph glyph-name="mu" unicode="&#xb5;" 
d="M512 111q-9 -32 -14.5 -60t-11.5 -51h-74q5 19 9 38t9 39h-2q-12 -17 -31 -33t-42.5 -28.5t-50.5 -20t-56 -7.5q-32 0 -53 5.5t-41 19.5l-66 -241h-78l194 696h78l-78 -281q-17 -59 -0.5 -93t71.5 -34q38 0 69 13t55 37t42 57t29 73l64 228h78z" />
    <glyph glyph-name="mu" unicode="&#x3bc;" 
d="M512 111q-9 -32 -14.5 -60t-11.5 -51h-74q5 19 9 38t9 39h-2q-12 -17 -31 -33t-42.5 -28.5t-50.5 -20t-56 -7.5q-32 0 -53 5.5t-41 19.5l-66 -241h-78l194 696h78l-78 -281q-17 -59 -0.5 -93t71.5 -34q38 0 69 13t55 37t42 57t29 73l64 228h78z" />
    <glyph glyph-name="paragraph" unicode="&#xb6;" horiz-adv-x="600" 
d="M335 316q-46 0 -82 14.5t-60.5 39.5t-35 59t-5.5 73q14 98 82.5 152t174.5 54h243l-116 -834h-72l107 768h-118l-107 -768h-72z" />
    <glyph glyph-name="periodcentered" unicode="&#xb7;" horiz-adv-x="278" 
d="M241 369q25 0 37.5 -17.5t6.5 -42.5q-4 -12 -12 -23t-19 -19.5t-23 -13t-24 -4.5q-23 0 -36.5 17.5t-5.5 42.5q6 25 28.5 42.5t47.5 17.5z" />
    <glyph glyph-name="periodcentered" unicode="&#x2219;" horiz-adv-x="278" 
d="M241 369q25 0 37.5 -17.5t6.5 -42.5q-4 -12 -12 -23t-19 -19.5t-23 -13t-24 -4.5q-23 0 -36.5 17.5t-5.5 42.5q6 25 28.5 42.5t47.5 17.5z" />
    <glyph glyph-name="cedilla" unicode="&#xb8;" horiz-adv-x="240" 
d="M104 -64q7 1 15 2.5t20 1.5q13 0 26.5 -4t24 -12.5t16.5 -21.5t4 -31q-3 -24 -16.5 -41t-32 -27.5t-40 -15t-41.5 -4.5q-26 0 -50.5 5t-44.5 16l21 37q34 -16 70 -16q20 0 41.5 8.5t25.5 32.5q3 21 -13.5 29.5t-33.5 8.5q-10 0 -20 -2.5t-20 -5.5l-17 19l74 85h45z" />
    <glyph glyph-name="onesuperior" unicode="&#xb9;" horiz-adv-x="361" 
d="M262 641h-2l-90 -66l-27 46l137 93h58l-59 -425h-66z" />
    <glyph glyph-name="ordmasculine" unicode="&#xba;" horiz-adv-x="386" 
d="M175 573q-3 -19 1.5 -36t15.5 -30t27.5 -21t39.5 -8q22 0 41.5 8t33.5 21t23 30.5t12 35.5t-1.5 34.5t-15.5 29.5t-28 21t-39 8q-23 0 -42 -8t-33 -21t-23 -29.5t-12 -34.5zM109 573q4 33 20.5 60t41 46.5t56 30t66.5 10.5t63.5 -10.5t47.5 -30t27 -46.5t4 -60
q-5 -34 -20.5 -61.5t-40 -47t-56 -30t-66.5 -10.5t-63.5 10.5t-47.5 30t-28 47t-4 61.5z" />
    <glyph glyph-name="guillemotright" unicode="&#xbb;" horiz-adv-x="500" 
d="M394 240l-92 178l60 36l113 -214l-173 -214l-50 36zM208 240l-92 178l60 36l113 -214l-173 -214l-50 36z" />
    <glyph glyph-name="onequarter" unicode="&#xbc;" horiz-adv-x="834" 
d="M721 347h-2l-161 -203h135zM759 144h56l-8 -54h-56l-12 -90h-66l12 90h-195l9 63l221 272h78zM244 642h-2l-90 -67l-27 46l137 93h58l-59 -425h-66zM695 740l51 -32l-547 -740l-50 32z" />
    <glyph glyph-name="onehalf" unicode="&#xbd;" horiz-adv-x="834" 
d="M512 58l189 151q31 25 49 45t23 52q5 33 -14 52t-48 19q-32 0 -57 -18t-35 -49l-63 5q17 60 60.5 88t99.5 28q28 0 52.5 -7.5t42 -23t25 -39t3.5 -55.5q-3 -26 -13.5 -46t-25.5 -37.5t-33 -32.5t-37 -30l-135 -104v-2h213l-7 -54h-297zM238 642h-2l-90 -67l-27 46l137 93
h58l-59 -425h-66zM678 740l51 -32l-547 -740l-50 32z" />
    <glyph glyph-name="threequarters" unicode="&#xbe;" horiz-adv-x="834" 
d="M735 347h-2l-161 -201v-2h135zM773 144h56l-8 -54h-56l-12 -90h-66l12 90h-195l9 63l221 272h78zM209 538h16q13 0 29.5 2.5t32 9.5t27 20.5t14.5 36.5q5 32 -14.5 45.5t-48.5 13.5q-26 0 -48.5 -9t-38.5 -33l-51 25q24 38 62.5 54.5t83.5 16.5q27 0 51 -7t40.5 -21
t25 -35t4.5 -48q-5 -33 -30.5 -60t-61.5 -37l-1 -2q44 -6 64.5 -36t15.5 -70q-4 -30 -19.5 -52.5t-38.5 -37.5t-51.5 -23t-59.5 -8q-52 0 -88.5 20.5t-46.5 71.5l58 23q2 -10 8 -21t16 -20t24.5 -14.5t35.5 -5.5q16 0 32.5 4.5t30 13t22.5 21.5t11 31q3 24 -5 39t-22.5 23.5
t-33 11.5t-36.5 3h-16zM734 740l51 -32l-547 -740l-50 32z" />
    <glyph glyph-name="questiondown" unicode="&#xbf;" horiz-adv-x="482" 
d="M302 372q-25 0 -40 17.5t-11 42.5q3 25 24 42.5t44 17.5t39 -17.5t13 -42.5q-4 -25 -24 -42.5t-45 -17.5zM445 -69q-12 -41 -35.5 -73t-54.5 -53.5t-68.5 -33t-78.5 -11.5t-75 11.5t-57 34t-33.5 56t-4.5 76.5q4 33 17.5 59.5t32 49t42 43t49.5 41.5q18 15 28.5 26
t17.5 23t10.5 26.5t6.5 35.5l7 46h84l-9 -63q-4 -28 -10 -46t-16 -32.5t-25.5 -29t-37.5 -33.5q-18 -16 -35.5 -31.5t-32.5 -32.5t-25.5 -36t-13.5 -43q-7 -48 17 -78.5t74 -30.5q51 0 87 30t50 79z" />
    <glyph glyph-name="Agrave" unicode="&#xc0;" horiz-adv-x="704" 
d="M439 600h-2l-195 -348h289zM416 708h79l203 -708h-98l-48 174h-354l-97 -174h-95zM525 758h-71l-123 144h110z" />
    <glyph glyph-name="Aacute" unicode="&#xc1;" horiz-adv-x="704" 
d="M439 600h-2l-195 -348h289zM416 708h79l203 -708h-98l-48 174h-354l-97 -174h-95zM511 902h110l-163 -144h-71z" />
    <glyph glyph-name="Acircumflex" unicode="&#xc2;" horiz-adv-x="704" 
d="M439 600h-2l-195 -348h289zM416 708h79l203 -708h-98l-48 174h-354l-97 -174h-95zM430 902h91l92 -144h-81l-65 102l-92 -102h-76z" />
    <glyph glyph-name="Atilde" unicode="&#xc3;" horiz-adv-x="704" 
d="M439 600h-2l-195 -348h289zM416 708h79l203 -708h-98l-48 174h-354l-97 -174h-95zM291 770q6 19 16 38t24.5 33.5t33 23.5t40.5 9q23 0 42 -7.5t39 -15.5q14 -6 25 -11.5t27 -5.5q20 0 33 13t21 31h48q-6 -19 -15 -37.5t-22.5 -33.5t-31 -24t-39.5 -9q-21 0 -40.5 6.5
t-37.5 14.5q-14 6 -30 12.5t-33 6.5q-19 0 -32 -13.5t-20 -30.5h-48z" />
    <glyph glyph-name="Adieresis" unicode="&#xc4;" horiz-adv-x="704" 
d="M439 600h-2l-195 -348h289zM416 708h79l203 -708h-98l-48 174h-354l-97 -174h-95zM572 878q23 0 36 -16t10 -38q-3 -23 -20.5 -38.5t-40.5 -15.5t-36.5 15.5t-10.5 38.5q3 22 21 38t41 16zM374 878q23 0 36 -16t10 -38q-3 -23 -20.5 -38.5t-40.5 -15.5t-36.5 15.5
t-10.5 38.5q3 22 21 38t41 16z" />
    <glyph glyph-name="Aring" unicode="&#xc5;" horiz-adv-x="704" 
d="M439 600h-2l-195 -348h289zM416 708h79l203 -708h-98l-48 174h-354l-97 -174h-95zM409 829q-3 -25 12 -41t37 -16t42 16t23 41q4 24 -11.5 40.5t-37.5 16.5t-41.5 -16.5t-23.5 -40.5zM367 829q3 20 13 38t25 31.5t34.5 21.5t40.5 8q44 0 67.5 -29.5t17.5 -69.5
q-3 -20 -13 -38t-25 -31.5t-34.5 -21.5t-40.5 -8q-43 0 -66.5 29t-18.5 70z" />
    <glyph glyph-name="AE" unicode="&#xc6;" horiz-adv-x="944" 
d="M594 630h-12l-281 -360h243zM548 708h435l-11 -78h-294l-31 -222h276l-11 -78h-276l-35 -252h306l-10 -78h-390l26 192h-293l-149 -192h-101z" />
    <glyph glyph-name="Ccedilla" unicode="&#xc7;" horiz-adv-x="704" 
d="M662 562q-26 43 -70 64.5t-95 21.5q-59 0 -112 -24t-94.5 -64.5t-69 -94t-35.5 -111.5q-9 -62 3.5 -115.5t42.5 -93t76.5 -62.5t106.5 -23q65 0 119.5 25.5t99.5 73.5l55 -53q-57 -64 -128.5 -94t-156.5 -30l-38 -46q7 1 15 2.5t20 1.5q13 0 26.5 -4t24 -12.5t16.5 -21.5
t4 -31q-3 -24 -16.5 -41t-32 -27.5t-40 -15t-41.5 -4.5q-26 0 -50.5 5t-45.5 16l22 37q34 -16 70 -16q20 0 41.5 8.5t25.5 32.5q3 21 -13.5 29.5t-33.5 8.5q-10 0 -20 -2.5t-20 -5.5l-17 19l60 70q-67 7 -120.5 37.5t-89 79t-51 113t-4.5 139.5q11 78 47 146t91 118t125 79
t149 29q72 0 134.5 -26t99.5 -85z" />
    <glyph glyph-name="Egrave" unicode="&#xc8;" horiz-adv-x="593" 
d="M186 708h445l-11 -78h-361l-31 -222h337l-11 -78h-337l-35 -252h379l-10 -78h-463zM470 758h-71l-123 144h110z" />
    <glyph glyph-name="Eacute" unicode="&#xc9;" horiz-adv-x="593" 
d="M186 708h445l-11 -78h-361l-31 -222h337l-11 -78h-337l-35 -252h379l-10 -78h-463zM456 902h110l-163 -144h-71z" />
    <glyph glyph-name="Ecircumflex" unicode="&#xca;" horiz-adv-x="593" 
d="M186 708h445l-11 -78h-361l-31 -222h337l-11 -78h-337l-35 -252h379l-10 -78h-463zM375 902h91l92 -144h-81l-65 102l-92 -102h-76z" />
    <glyph glyph-name="Edieresis" unicode="&#xcb;" horiz-adv-x="593" 
d="M186 708h445l-11 -78h-361l-31 -222h337l-11 -78h-337l-35 -252h379l-10 -78h-463zM517 878q23 0 36 -16t10 -38q-3 -23 -20.5 -38.5t-40.5 -15.5t-36.5 15.5t-10.5 38.5q3 22 21 38t41 16zM319 878q23 0 36 -16t10 -38q-3 -23 -20.5 -38.5t-40.5 -15.5t-36.5 15.5
t-10.5 38.5q3 22 21 38t41 16z" />
    <glyph glyph-name="Igrave" unicode="&#xcc;" horiz-adv-x="260" 
d="M186 708h84l-98 -708h-84zM303 758h-71l-123 144h110z" />
    <glyph glyph-name="Iacute" unicode="&#xcd;" horiz-adv-x="260" 
d="M186 708h84l-98 -708h-84zM289 902h110l-163 -144h-71z" />
    <glyph glyph-name="Icircumflex" unicode="&#xce;" horiz-adv-x="260" 
d="M186 708h84l-98 -708h-84zM208 902h91l92 -144h-81l-65 102l-92 -102h-76z" />
    <glyph glyph-name="Idieresis" unicode="&#xcf;" horiz-adv-x="260" 
d="M186 708h84l-98 -708h-84zM350 878q23 0 36 -16t10 -38q-3 -23 -20.5 -38.5t-40.5 -15.5t-36.5 15.5t-10.5 38.5q3 22 21 38t41 16zM152 878q23 0 36 -16t10 -38q-3 -23 -20.5 -38.5t-40.5 -15.5t-36.5 15.5t-10.5 38.5q3 22 21 38t41 16z" />
    <glyph glyph-name="Eth" unicode="&#xd0;" horiz-adv-x="741" 
d="M214 402h252l-9 -66h-252l-36 -258h160q61 0 115.5 16t97.5 49.5t72 85.5t39 125t-4.5 125t-48 85.5t-83.5 49.5t-111 16h-160zM173 708h272q52 0 110 -18.5t104.5 -60.5t71.5 -109.5t12 -165.5q-14 -98 -58 -165.5t-102 -109.5t-121 -60.5t-115 -18.5h-272l46 336h-72
l9 66h72z" />
    <glyph glyph-name="Ntilde" unicode="&#xd1;" horiz-adv-x="778" 
d="M186 708h106l328 -588h2l82 588h84l-98 -708h-106l-329 588h-2l-81 -588h-84zM328 770q6 19 16 38t24.5 33.5t33 23.5t40.5 9q23 0 42 -7.5t39 -15.5q14 -6 25 -11.5t27 -5.5q20 0 33 13t21 31h48q-6 -19 -15 -37.5t-22.5 -33.5t-31 -24t-39.5 -9q-21 0 -40.5 6.5
t-37.5 14.5q-14 6 -30 12.5t-33 6.5q-19 0 -32 -13.5t-20 -30.5h-48z" />
    <glyph glyph-name="Ograve" unicode="&#xd2;" horiz-adv-x="834" 
d="M425 60q62 0 117 23t97.5 63t70 93.5t36.5 114.5q8 61 -5 114.5t-44 93.5t-79.5 63t-110.5 23t-117 -23t-97.5 -63t-70.5 -93.5t-36 -114.5q-9 -61 4 -114.5t44.5 -93.5t80 -63t110.5 -23zM414 -18q-81 0 -145 28t-106 77.5t-60 118t-7 148.5t48 148.5t93.5 118t128 77.5
t152.5 28t145 -28t106 -77.5t60 -118t7 -148.5t-48 -148.5t-93.5 -118t-128 -77.5t-152.5 -28zM590 758h-71l-123 144h110z" />
    <glyph glyph-name="Oacute" unicode="&#xd3;" horiz-adv-x="834" 
d="M425 60q62 0 117 23t97.5 63t70 93.5t36.5 114.5q8 61 -5 114.5t-44 93.5t-79.5 63t-110.5 23t-117 -23t-97.5 -63t-70.5 -93.5t-36 -114.5q-9 -61 4 -114.5t44.5 -93.5t80 -63t110.5 -23zM414 -18q-81 0 -145 28t-106 77.5t-60 118t-7 148.5t48 148.5t93.5 118t128 77.5
t152.5 28t145 -28t106 -77.5t60 -118t7 -148.5t-48 -148.5t-93.5 -118t-128 -77.5t-152.5 -28zM576 902h110l-163 -144h-71z" />
    <glyph glyph-name="Ocircumflex" unicode="&#xd4;" horiz-adv-x="834" 
d="M425 60q62 0 117 23t97.5 63t70 93.5t36.5 114.5q8 61 -5 114.5t-44 93.5t-79.5 63t-110.5 23t-117 -23t-97.5 -63t-70.5 -93.5t-36 -114.5q-9 -61 4 -114.5t44.5 -93.5t80 -63t110.5 -23zM414 -18q-81 0 -145 28t-106 77.5t-60 118t-7 148.5t48 148.5t93.5 118t128 77.5
t152.5 28t145 -28t106 -77.5t60 -118t7 -148.5t-48 -148.5t-93.5 -118t-128 -77.5t-152.5 -28zM495 902h91l92 -144h-81l-65 102l-92 -102h-76z" />
    <glyph glyph-name="Otilde" unicode="&#xd5;" horiz-adv-x="834" 
d="M425 60q62 0 117 23t97.5 63t70 93.5t36.5 114.5q8 61 -5 114.5t-44 93.5t-79.5 63t-110.5 23t-117 -23t-97.5 -63t-70.5 -93.5t-36 -114.5q-9 -61 4 -114.5t44.5 -93.5t80 -63t110.5 -23zM414 -18q-81 0 -145 28t-106 77.5t-60 118t-7 148.5t48 148.5t93.5 118t128 77.5
t152.5 28t145 -28t106 -77.5t60 -118t7 -148.5t-48 -148.5t-93.5 -118t-128 -77.5t-152.5 -28zM356 770q6 19 16 38t24.5 33.5t33 23.5t40.5 9q23 0 42 -7.5t39 -15.5q14 -6 25 -11.5t27 -5.5q20 0 33 13t21 31h48q-6 -19 -15 -37.5t-22.5 -33.5t-31 -24t-39.5 -9
q-21 0 -40.5 6.5t-37.5 14.5q-14 6 -30 12.5t-33 6.5q-19 0 -32 -13.5t-20 -30.5h-48z" />
    <glyph glyph-name="Odieresis" unicode="&#xd6;" horiz-adv-x="834" 
d="M425 60q62 0 117 23t97.5 63t70 93.5t36.5 114.5q8 61 -5 114.5t-44 93.5t-79.5 63t-110.5 23t-117 -23t-97.5 -63t-70.5 -93.5t-36 -114.5q-9 -61 4 -114.5t44.5 -93.5t80 -63t110.5 -23zM414 -18q-81 0 -145 28t-106 77.5t-60 118t-7 148.5t48 148.5t93.5 118t128 77.5
t152.5 28t145 -28t106 -77.5t60 -118t7 -148.5t-48 -148.5t-93.5 -118t-128 -77.5t-152.5 -28zM637 878q23 0 36 -16t10 -38q-3 -23 -20.5 -38.5t-40.5 -15.5t-36.5 15.5t-10.5 38.5q3 22 21 38t41 16zM439 878q23 0 36 -16t10 -38q-3 -23 -20.5 -38.5t-40.5 -15.5
t-36.5 15.5t-10.5 38.5q3 22 21 38t41 16z" />
    <glyph glyph-name="multiply" unicode="&#xd7;" horiz-adv-x="666" 
d="M381 351l220 193l42 -47l-221 -194l167 -192l-55 -49l-166 194l-220 -194l-41 47l220 194l-167 192l56 49z" />
    <glyph glyph-name="Oslash" unicode="&#xd8;" horiz-adv-x="834" 
d="M154 99q-38 50 -53.5 114.5t-4.5 140.5q11 80 48 148.5t93.5 118t128 77.5t152.5 28q67 0 122 -19.5t97 -55.5l91 87l37 -38l-91 -86q39 -49 56 -115.5t6 -144.5q-11 -80 -48 -148.5t-93.5 -118t-128 -77.5t-152.5 -28q-70 0 -126.5 20.5t-98.5 58.5l-93 -88l-35 38z
M671 589q-30 28 -71.5 43.5t-92.5 15.5q-62 0 -117 -23t-97.5 -63t-70.5 -93.5t-36 -114.5q-8 -55 1.5 -103.5t34.5 -86.5zM256 124q30 -30 73 -47t96 -17q62 0 117 23t97.5 63t70 93.5t36.5 114.5q8 57 -2.5 107t-37.5 89z" />
    <glyph glyph-name="Ugrave" unicode="&#xd9;" horiz-adv-x="704" 
d="M656 270q-8 -58 -29.5 -110t-59 -91.5t-91.5 -63t-127 -23.5t-120.5 23.5t-74 63t-33.5 91.5t1 110l61 438h84l-59 -426q-6 -43 -3 -83t20 -71t49.5 -49.5t85.5 -18.5t90.5 18.5t63 49.5t40 71t20.5 83l59 426h84zM525 758h-71l-123 144h110z" />
    <glyph glyph-name="Uacute" unicode="&#xda;" horiz-adv-x="704" 
d="M656 270q-8 -58 -29.5 -110t-59 -91.5t-91.5 -63t-127 -23.5t-120.5 23.5t-74 63t-33.5 91.5t1 110l61 438h84l-59 -426q-6 -43 -3 -83t20 -71t49.5 -49.5t85.5 -18.5t90.5 18.5t63 49.5t40 71t20.5 83l59 426h84zM511 902h110l-163 -144h-71z" />
    <glyph glyph-name="Ucircumflex" unicode="&#xdb;" horiz-adv-x="704" 
d="M656 270q-8 -58 -29.5 -110t-59 -91.5t-91.5 -63t-127 -23.5t-120.5 23.5t-74 63t-33.5 91.5t1 110l61 438h84l-59 -426q-6 -43 -3 -83t20 -71t49.5 -49.5t85.5 -18.5t90.5 18.5t63 49.5t40 71t20.5 83l59 426h84zM430 902h91l92 -144h-81l-65 102l-92 -102h-76z" />
    <glyph glyph-name="Udieresis" unicode="&#xdc;" horiz-adv-x="704" 
d="M656 270q-8 -58 -29.5 -110t-59 -91.5t-91.5 -63t-127 -23.5t-120.5 23.5t-74 63t-33.5 91.5t1 110l61 438h84l-59 -426q-6 -43 -3 -83t20 -71t49.5 -49.5t85.5 -18.5t90.5 18.5t63 49.5t40 71t20.5 83l59 426h84zM572 878q23 0 36 -16t10 -38q-3 -23 -20.5 -38.5
t-40.5 -15.5t-36.5 15.5t-10.5 38.5q3 22 21 38t41 16zM374 878q23 0 36 -16t10 -38q-3 -23 -20.5 -38.5t-40.5 -15.5t-36.5 15.5t-10.5 38.5q3 22 21 38t41 16z" />
    <glyph glyph-name="Yacute" unicode="&#xdd;" horiz-adv-x="594" 
d="M297 305l-208 403h107l154 -320l250 320h101l-320 -403l-42 -305h-84zM456 902h110l-163 -144h-71z" />
    <glyph glyph-name="Thorn" unicode="&#xde;" horiz-adv-x="593" 
d="M209 271h142q63 0 106.5 28.5t51.5 88.5t-27 88.5t-98 28.5h-142zM186 708h84l-17 -125h126q49 0 92.5 -9.5t74.5 -32t46 -60t8 -92.5q-8 -58 -35.5 -96t-65 -60t-80 -31t-79.5 -9h-142l-26 -193h-84z" />
    <glyph glyph-name="germandbls" unicode="&#xdf;" horiz-adv-x="593" 
d="M149 540q6 46 24 87t48.5 72.5t74.5 50t103 18.5q41 0 75 -12t57.5 -34.5t34.5 -55.5t5 -76q-8 -57 -42 -98t-90 -60l-1 -2q41 -4 70.5 -22.5t47 -47.5t23.5 -65.5t0 -76.5q-8 -53 -32 -95.5t-60 -72.5t-82 -46t-97 -16q-16 0 -31.5 2t-29.5 7l10 71q12 -5 24.5 -6.5
t26.5 -1.5q37 0 69.5 12t57 33.5t40.5 52t21 67.5q6 40 -3 71.5t-29.5 53.5t-51.5 33.5t-70 11.5h-23l10 66h22q54 0 93 32t47 88q7 54 -23.5 84.5t-82.5 30.5q-40 0 -68 -13.5t-47 -36t-29.5 -52t-14.5 -61.5l-74 -533h-78z" />
    <glyph glyph-name="agrave" unicode="&#xe0;" horiz-adv-x="519" 
d="M325 225q-75 0 -122 -21t-54 -69q-6 -44 21 -62.5t71 -18.5q34 0 61 11.5t47 30.5t32.5 44.5t17.5 54.5l4 30h-78zM124 408q42 37 93.5 54.5t102.5 17.5q104 0 143.5 -49t25.5 -149l-28 -201q-3 -20 -4 -41.5t0 -39.5h-75q-2 16 0 35.5t4 34.5h-2q-28 -36 -69.5 -59
t-95.5 -23q-36 0 -66 9t-51.5 26.5t-32 43.5t-5.5 60q8 58 42.5 91t81.5 49t99 20t95 4h30l2 14q7 51 -20 77t-82 26q-38 0 -76 -12.5t-70 -38.5zM409 580h-71l-123 144h110z" />
    <glyph glyph-name="aacute" unicode="&#xe1;" horiz-adv-x="519" 
d="M325 225q-75 0 -122 -21t-54 -69q-6 -44 21 -62.5t71 -18.5q34 0 61 11.5t47 30.5t32.5 44.5t17.5 54.5l4 30h-78zM124 408q42 37 93.5 54.5t102.5 17.5q104 0 143.5 -49t25.5 -149l-28 -201q-3 -20 -4 -41.5t0 -39.5h-75q-2 16 0 35.5t4 34.5h-2q-28 -36 -69.5 -59
t-95.5 -23q-36 0 -66 9t-51.5 26.5t-32 43.5t-5.5 60q8 58 42.5 91t81.5 49t99 20t95 4h30l2 14q7 51 -20 77t-82 26q-38 0 -76 -12.5t-70 -38.5zM395 724h110l-163 -144h-71z" />
    <glyph glyph-name="acircumflex" unicode="&#xe2;" horiz-adv-x="519" 
d="M325 225q-75 0 -122 -21t-54 -69q-6 -44 21 -62.5t71 -18.5q34 0 61 11.5t47 30.5t32.5 44.5t17.5 54.5l4 30h-78zM124 408q42 37 93.5 54.5t102.5 17.5q104 0 143.5 -49t25.5 -149l-28 -201q-3 -20 -4 -41.5t0 -39.5h-75q-2 16 0 35.5t4 34.5h-2q-28 -36 -69.5 -59
t-95.5 -23q-36 0 -66 9t-51.5 26.5t-32 43.5t-5.5 60q8 58 42.5 91t81.5 49t99 20t95 4h30l2 14q7 51 -20 77t-82 26q-38 0 -76 -12.5t-70 -38.5zM314 724h91l92 -144h-81l-65 102l-92 -102h-76z" />
    <glyph glyph-name="atilde" unicode="&#xe3;" horiz-adv-x="519" 
d="M325 225q-75 0 -122 -21t-54 -69q-6 -44 21 -62.5t71 -18.5q34 0 61 11.5t47 30.5t32.5 44.5t17.5 54.5l4 30h-78zM124 408q42 37 93.5 54.5t102.5 17.5q104 0 143.5 -49t25.5 -149l-28 -201q-3 -20 -4 -41.5t0 -39.5h-75q-2 16 0 35.5t4 34.5h-2q-28 -36 -69.5 -59
t-95.5 -23q-36 0 -66 9t-51.5 26.5t-32 43.5t-5.5 60q8 58 42.5 91t81.5 49t99 20t95 4h30l2 14q7 51 -20 77t-82 26q-38 0 -76 -12.5t-70 -38.5zM175 592q6 19 16 38t24.5 33.5t33 23.5t40.5 9q23 0 42 -7.5t39 -15.5q14 -6 25 -11.5t27 -5.5q20 0 33 13t21 31h48
q-6 -19 -15 -37.5t-22.5 -33.5t-31 -24t-39.5 -9q-21 0 -40.5 6.5t-37.5 14.5q-14 6 -30 12.5t-33 6.5q-19 0 -32 -13.5t-20 -30.5h-48z" />
    <glyph glyph-name="adieresis" unicode="&#xe4;" horiz-adv-x="519" 
d="M325 225q-75 0 -122 -21t-54 -69q-6 -44 21 -62.5t71 -18.5q34 0 61 11.5t47 30.5t32.5 44.5t17.5 54.5l4 30h-78zM124 408q42 37 93.5 54.5t102.5 17.5q104 0 143.5 -49t25.5 -149l-28 -201q-3 -20 -4 -41.5t0 -39.5h-75q-2 16 0 35.5t4 34.5h-2q-28 -36 -69.5 -59
t-95.5 -23q-36 0 -66 9t-51.5 26.5t-32 43.5t-5.5 60q8 58 42.5 91t81.5 49t99 20t95 4h30l2 14q7 51 -20 77t-82 26q-38 0 -76 -12.5t-70 -38.5zM456 700q23 0 36 -16t10 -38q-3 -23 -20.5 -38.5t-40.5 -15.5t-36.5 15.5t-10.5 38.5q3 22 21 38t41 16zM258 700q23 0 36 -16
t10 -38q-3 -23 -20.5 -38.5t-40.5 -15.5t-36.5 15.5t-10.5 38.5q3 22 21 38t41 16z" />
    <glyph glyph-name="aring" unicode="&#xe5;" horiz-adv-x="519" 
d="M325 225q-75 0 -122 -21t-54 -69q-6 -44 21 -62.5t71 -18.5q34 0 61 11.5t47 30.5t32.5 44.5t17.5 54.5l4 30h-78zM124 408q42 37 93.5 54.5t102.5 17.5q104 0 143.5 -49t25.5 -149l-28 -201q-3 -20 -4 -41.5t0 -39.5h-75q-2 16 0 35.5t4 34.5h-2q-28 -36 -69.5 -59
t-95.5 -23q-36 0 -66 9t-51.5 26.5t-32 43.5t-5.5 60q8 58 42.5 91t81.5 49t99 20t95 4h30l2 14q7 51 -20 77t-82 26q-38 0 -76 -12.5t-70 -38.5zM294 661q-3 -25 12 -41t37 -16t42 16t23 41q4 24 -11.5 40.5t-37.5 16.5t-41.5 -16.5t-23.5 -40.5zM252 661q3 20 13 38
t25 31.5t34.5 21.5t40.5 8q44 0 67.5 -29.5t17.5 -69.5q-3 -20 -13 -38t-25 -31.5t-34.5 -21.5t-40.5 -8q-43 0 -66.5 29t-18.5 70z" />
    <glyph glyph-name="ae" unicode="&#xe6;" horiz-adv-x="852" 
d="M764 276q6 60 -26 96t-97 36q-29 0 -55 -11.5t-46.5 -30t-34.5 -42.5t-18 -48h277zM289 210q-21 0 -44 -3.5t-43.5 -12t-35 -23.5t-17.5 -39q-3 -20 5 -33.5t22 -22t33 -12.5t39 -4q30 0 57 10t47.5 28t34 43.5t17.5 55.5l2 13h-117zM804 85q-49 -54 -102 -75.5
t-119 -21.5q-34 0 -61.5 9t-48 23.5t-34 32.5t-20.5 36q-35 -56 -88.5 -78.5t-112.5 -22.5q-30 0 -60 8t-52.5 25t-34.5 43.5t-7 64.5q7 48 33.5 77t63 44.5t78.5 20.5t80 5h96l2 12q7 51 -17.5 85.5t-83.5 34.5q-43 0 -75.5 -11.5t-67.5 -34.5l-43 52q43 33 94 49.5
t102 16.5q48 0 89.5 -17.5t61.5 -61.5q47 43 90.5 61t86.5 18q49 0 88 -16.5t64 -48t34.5 -77t1.5 -103.5l-3 -25h-361q-4 -31 2.5 -58t21.5 -47.5t38.5 -32.5t52.5 -12q51 0 88.5 18t70.5 53z" />
    <glyph glyph-name="ccedilla" unicode="&#xe7;" horiz-adv-x="482" 
d="M455 351q-20 30 -47.5 43.5t-62.5 13.5q-39 0 -70.5 -13.5t-55 -37.5t-37.5 -55.5t-19 -67.5t2 -67.5t24.5 -55.5t44.5 -37.5t63 -13.5q76 0 127 58l50 -55q-35 -35 -79 -53t-90 -20l-45 -54q7 1 15 2.5t20 1.5q13 0 26.5 -4t24 -12.5t16.5 -21.5t4 -31q-3 -24 -16.5 -41
t-32 -27.5t-40 -15t-41.5 -4.5q-26 0 -50.5 5t-45.5 16l22 37q34 -16 70 -16q20 0 41.5 8.5t25.5 32.5q3 21 -13.5 29.5t-33.5 8.5q-10 0 -20 -2.5t-20 -5.5l-17 19l65 76q-48 4 -85 23.5t-60.5 51.5t-33 74.5t-2.5 93.5q7 53 31 98t60.5 78t83.5 51.5t101 18.5q52 0 96 -18
t74 -56z" />
    <glyph glyph-name="egrave" unicode="&#xe8;" 
d="M463 276q6 60 -26 96t-97 36t-110 -36t-61 -96h294zM503 85q-49 -54 -102 -75.5t-119 -21.5q-55 0 -96.5 19.5t-67.5 52.5t-36 78t-3 96q7 54 31.5 99.5t61 78t83 50.5t98.5 18q49 0 88 -16.5t64 -48t34.5 -77t1.5 -103.5l-3 -25h-378q-2 -30 6.5 -57.5t25.5 -48
t42.5 -32.5t57.5 -12q51 0 88.5 18t70.5 53zM427 580h-71l-123 144h110z" />
    <glyph glyph-name="eacute" unicode="&#xe9;" 
d="M463 276q6 60 -26 96t-97 36t-110 -36t-61 -96h294zM503 85q-49 -54 -102 -75.5t-119 -21.5q-55 0 -96.5 19.5t-67.5 52.5t-36 78t-3 96q7 54 31.5 99.5t61 78t83 50.5t98.5 18q49 0 88 -16.5t64 -48t34.5 -77t1.5 -103.5l-3 -25h-378q-2 -30 6.5 -57.5t25.5 -48
t42.5 -32.5t57.5 -12q51 0 88.5 18t70.5 53zM413 724h110l-163 -144h-71z" />
    <glyph glyph-name="ecircumflex" unicode="&#xea;" 
d="M463 276q6 60 -26 96t-97 36t-110 -36t-61 -96h294zM503 85q-49 -54 -102 -75.5t-119 -21.5q-55 0 -96.5 19.5t-67.5 52.5t-36 78t-3 96q7 54 31.5 99.5t61 78t83 50.5t98.5 18q49 0 88 -16.5t64 -48t34.5 -77t1.5 -103.5l-3 -25h-378q-2 -30 6.5 -57.5t25.5 -48
t42.5 -32.5t57.5 -12q51 0 88.5 18t70.5 53zM332 724h91l92 -144h-81l-65 102l-92 -102h-76z" />
    <glyph glyph-name="edieresis" unicode="&#xeb;" 
d="M463 276q6 60 -26 96t-97 36t-110 -36t-61 -96h294zM503 85q-49 -54 -102 -75.5t-119 -21.5q-55 0 -96.5 19.5t-67.5 52.5t-36 78t-3 96q7 54 31.5 99.5t61 78t83 50.5t98.5 18q49 0 88 -16.5t64 -48t34.5 -77t1.5 -103.5l-3 -25h-378q-2 -30 6.5 -57.5t25.5 -48
t42.5 -32.5t57.5 -12q51 0 88.5 18t70.5 53zM474 700q23 0 36 -16t10 -38q-3 -23 -20.5 -38.5t-40.5 -15.5t-36.5 15.5t-10.5 38.5q3 22 21 38t41 16zM276 700q23 0 36 -16t10 -38q-3 -23 -20.5 -38.5t-40.5 -15.5t-36.5 15.5t-10.5 38.5q3 22 21 38t41 16z" />
    <glyph glyph-name="igrave" unicode="&#xec;" horiz-adv-x="240" 
d="M146 468h78l-65 -468h-78zM269 580h-71l-123 144h110z" />
    <glyph glyph-name="iacute" unicode="&#xed;" horiz-adv-x="240" 
d="M146 468h78l-65 -468h-78zM255 724h110l-163 -144h-71z" />
    <glyph glyph-name="icircumflex" unicode="&#xee;" horiz-adv-x="240" 
d="M146 468h78l-65 -468h-78zM174 724h91l92 -144h-81l-65 102l-92 -102h-76z" />
    <glyph glyph-name="idieresis" unicode="&#xef;" horiz-adv-x="240" 
d="M146 468h78l-65 -468h-78zM316 700q23 0 36 -16t10 -38q-3 -23 -20.5 -38.5t-40.5 -15.5t-36.5 15.5t-10.5 38.5q3 22 21 38t41 16zM118 700q23 0 36 -16t10 -38q-3 -23 -20.5 -38.5t-40.5 -15.5t-36.5 15.5t-10.5 38.5q3 22 21 38t41 16z" />
    <glyph glyph-name="eth" unicode="&#xf0;" horiz-adv-x="594" 
d="M163 234q-5 -37 2 -68.5t25.5 -55t47.5 -37t67 -13.5t70.5 13.5t57 37t41 55t21.5 68.5t-2 68.5t-25.5 55t-47.5 37t-67 13.5t-70.5 -13.5t-57 -37t-41 -55t-21.5 -68.5zM326 663q-18 20 -38 39.5t-40 36.5l75 40q20 -18 41 -39t39 -41l114 54l41 -39l-119 -56
q34 -38 64.5 -79t51.5 -88.5t29 -103.5t-1 -122q-8 -61 -30.5 -112t-58.5 -87.5t-86 -57t-113 -20.5q-54 0 -97.5 18t-72 50.5t-41.5 77.5t-5 100q7 55 32.5 100t63 77.5t86 50.5t102.5 18q38 0 70 -12t53 -37l2 2q-21 52 -54 99t-71 91l-114 -54l-37 41z" />
    <glyph glyph-name="ntilde" unicode="&#xf1;" 
d="M123 357q5 32 6.5 60t5.5 51h74q-3 -19 -4.5 -38t-4.5 -39h2q10 17 26.5 33t38.5 28.5t48 20t55 7.5q46 0 77.5 -14t50 -39t24.5 -60.5t0 -77.5l-40 -289h-78l39 281q8 59 -13.5 93t-76.5 34q-76 0 -117.5 -50t-52.5 -130l-31 -228h-78zM193 592q6 19 16 38t24.5 33.5
t33 23.5t40.5 9q23 0 42 -7.5t39 -15.5q14 -6 25 -11.5t27 -5.5q20 0 33 13t21 31h48q-6 -19 -15 -37.5t-22.5 -33.5t-31 -24t-39.5 -9q-21 0 -40.5 6.5t-37.5 14.5q-14 6 -30 12.5t-33 6.5q-19 0 -32 -13.5t-20 -30.5h-48z" />
    <glyph glyph-name="ograve" unicode="&#xf2;" horiz-adv-x="594" 
d="M163 234q-5 -37 2 -68.5t25.5 -55t47.5 -37t67 -13.5t70.5 13.5t57 37t41 55t21.5 68.5t-2 68.5t-25.5 55t-47.5 37t-67 13.5t-70.5 -13.5t-57 -37t-41 -55t-21.5 -68.5zM79 234q7 55 32.5 100t63 77.5t86 50.5t102.5 18t97.5 -18t72 -50.5t41 -77.5t5.5 -100
q-8 -55 -33 -100t-62.5 -77.5t-86 -50.5t-102.5 -18t-97.5 18t-72 50.5t-41.5 77.5t-5 100zM446 580h-71l-123 144h110z" />
    <glyph glyph-name="oacute" unicode="&#xf3;" horiz-adv-x="594" 
d="M163 234q-5 -37 2 -68.5t25.5 -55t47.5 -37t67 -13.5t70.5 13.5t57 37t41 55t21.5 68.5t-2 68.5t-25.5 55t-47.5 37t-67 13.5t-70.5 -13.5t-57 -37t-41 -55t-21.5 -68.5zM79 234q7 55 32.5 100t63 77.5t86 50.5t102.5 18t97.5 -18t72 -50.5t41 -77.5t5.5 -100
q-8 -55 -33 -100t-62.5 -77.5t-86 -50.5t-102.5 -18t-97.5 18t-72 50.5t-41.5 77.5t-5 100zM432 724h110l-163 -144h-71z" />
    <glyph glyph-name="ocircumflex" unicode="&#xf4;" horiz-adv-x="594" 
d="M163 234q-5 -37 2 -68.5t25.5 -55t47.5 -37t67 -13.5t70.5 13.5t57 37t41 55t21.5 68.5t-2 68.5t-25.5 55t-47.5 37t-67 13.5t-70.5 -13.5t-57 -37t-41 -55t-21.5 -68.5zM79 234q7 55 32.5 100t63 77.5t86 50.5t102.5 18t97.5 -18t72 -50.5t41 -77.5t5.5 -100
q-8 -55 -33 -100t-62.5 -77.5t-86 -50.5t-102.5 -18t-97.5 18t-72 50.5t-41.5 77.5t-5 100zM351 724h91l92 -144h-81l-65 102l-92 -102h-76z" />
    <glyph glyph-name="otilde" unicode="&#xf5;" horiz-adv-x="594" 
d="M163 234q-5 -37 2 -68.5t25.5 -55t47.5 -37t67 -13.5t70.5 13.5t57 37t41 55t21.5 68.5t-2 68.5t-25.5 55t-47.5 37t-67 13.5t-70.5 -13.5t-57 -37t-41 -55t-21.5 -68.5zM79 234q7 55 32.5 100t63 77.5t86 50.5t102.5 18t97.5 -18t72 -50.5t41 -77.5t5.5 -100
q-8 -55 -33 -100t-62.5 -77.5t-86 -50.5t-102.5 -18t-97.5 18t-72 50.5t-41.5 77.5t-5 100zM212 592q6 19 16 38t24.5 33.5t33 23.5t40.5 9q23 0 42 -7.5t39 -15.5q14 -6 25 -11.5t27 -5.5q20 0 33 13t21 31h48q-6 -19 -15 -37.5t-22.5 -33.5t-31 -24t-39.5 -9
q-21 0 -40.5 6.5t-37.5 14.5q-14 6 -30 12.5t-33 6.5q-19 0 -32 -13.5t-20 -30.5h-48z" />
    <glyph glyph-name="odieresis" unicode="&#xf6;" horiz-adv-x="594" 
d="M163 234q-5 -37 2 -68.5t25.5 -55t47.5 -37t67 -13.5t70.5 13.5t57 37t41 55t21.5 68.5t-2 68.5t-25.5 55t-47.5 37t-67 13.5t-70.5 -13.5t-57 -37t-41 -55t-21.5 -68.5zM79 234q7 55 32.5 100t63 77.5t86 50.5t102.5 18t97.5 -18t72 -50.5t41 -77.5t5.5 -100
q-8 -55 -33 -100t-62.5 -77.5t-86 -50.5t-102.5 -18t-97.5 18t-72 50.5t-41.5 77.5t-5 100zM493 700q23 0 36 -16t10 -38q-3 -23 -20.5 -38.5t-40.5 -15.5t-36.5 15.5t-10.5 38.5q3 22 21 38t41 16zM295 700q23 0 36 -16t10 -38q-3 -23 -20.5 -38.5t-40.5 -15.5t-36.5 15.5
t-10.5 38.5q3 22 21 38t41 16z" />
    <glyph glyph-name="divide" unicode="&#xf7;" horiz-adv-x="666" 
d="M295 138q3 24 22.5 40.5t42.5 16.5t37.5 -17t11.5 -40q-4 -24 -23 -40.5t-42 -16.5t-38 17t-11 40zM341 468q3 24 22.5 40.5t42.5 16.5t37.5 -17t11.5 -40q-4 -24 -23 -40.5t-42 -16.5t-38 17t-11 40zM118 336h522l-9 -66h-522z" />
    <glyph glyph-name="oslash" unicode="&#xf8;" horiz-adv-x="594" 
d="M115 72q-24 31 -33.5 72t-2.5 90q7 55 32.5 100t63 77.5t86 50.5t102.5 18q47 0 85.5 -13.5t66.5 -37.5l77 69l29 -32l-76 -69q23 -32 32 -73t2 -90q-8 -55 -33 -100t-62.5 -77.5t-86 -50.5t-102.5 -18q-47 0 -85.5 13.5t-65.5 38.5l-78 -70l-29 32zM206 95
q17 -17 42 -26t57 -9q38 0 70.5 13.5t57 37t41 55t21.5 68.5q9 60 -16 104zM452 373q-18 17 -43 26t-56 9q-38 0 -70.5 -13.5t-57 -37t-41 -55t-21.5 -68.5q-9 -61 17 -104z" />
    <glyph glyph-name="ugrave" unicode="&#xf9;" 
d="M497 111q-5 -32 -6.5 -60t-4.5 -51h-74l4 38t4 39h-2q-10 -17 -27 -33t-38.5 -28.5t-47.5 -20t-55 -7.5q-46 0 -77.5 14t-50 39t-24.5 60.5t0 77.5l41 289h78l-39 -281q-8 -59 13 -93t76 -34q76 0 117.5 50t52.5 130l32 228h78zM427 580h-71l-123 144h110z" />
    <glyph glyph-name="uacute" unicode="&#xfa;" 
d="M497 111q-5 -32 -6.5 -60t-4.5 -51h-74l4 38t4 39h-2q-10 -17 -27 -33t-38.5 -28.5t-47.5 -20t-55 -7.5q-46 0 -77.5 14t-50 39t-24.5 60.5t0 77.5l41 289h78l-39 -281q-8 -59 13 -93t76 -34q76 0 117.5 50t52.5 130l32 228h78zM413 724h110l-163 -144h-71z" />
    <glyph glyph-name="ucircumflex" unicode="&#xfb;" 
d="M497 111q-5 -32 -6.5 -60t-4.5 -51h-74l4 38t4 39h-2q-10 -17 -27 -33t-38.5 -28.5t-47.5 -20t-55 -7.5q-46 0 -77.5 14t-50 39t-24.5 60.5t0 77.5l41 289h78l-39 -281q-8 -59 13 -93t76 -34q76 0 117.5 50t52.5 130l32 228h78zM332 724h91l92 -144h-81l-65 102l-92 -102
h-76z" />
    <glyph glyph-name="udieresis" unicode="&#xfc;" 
d="M497 111q-5 -32 -6.5 -60t-4.5 -51h-74l4 38t4 39h-2q-10 -17 -27 -33t-38.5 -28.5t-47.5 -20t-55 -7.5q-46 0 -77.5 14t-50 39t-24.5 60.5t0 77.5l41 289h78l-39 -281q-8 -59 13 -93t76 -34q76 0 117.5 50t52.5 130l32 228h78zM474 700q23 0 36 -16t10 -38
q-3 -23 -20.5 -38.5t-40.5 -15.5t-36.5 15.5t-10.5 38.5q3 22 21 38t41 16zM276 700q23 0 36 -16t10 -38q-3 -23 -20.5 -38.5t-40.5 -15.5t-36.5 15.5t-10.5 38.5q3 22 21 38t41 16z" />
    <glyph glyph-name="yacute" unicode="&#xfd;" horiz-adv-x="482" 
d="M231 -107q-16 -30 -32 -54.5t-36 -42t-46 -27t-61 -9.5q-17 0 -35 2t-32 10l18 68q20 -8 54 -8q38 0 59 21t39 56l44 88l-128 471h91l94 -367h2l190 367h85zM376 724h110l-163 -144h-71z" />
    <glyph glyph-name="thorn" unicode="&#xfe;" horiz-adv-x="611" 
d="M180 234q-5 -37 2 -68.5t25.5 -55t47.5 -37t67 -13.5t70.5 13.5t57 37t41 55t21.5 68.5t-2 68.5t-25.5 55t-47.5 37t-67 13.5t-70.5 -13.5t-57 -37t-41 -55t-21.5 -68.5zM175 756h78l-50 -356h2q38 38 83 59t96 21q55 0 98 -18.5t70.5 -51.5t39 -78t4.5 -98t-31.5 -98
t-60.5 -78t-81.5 -51.5t-94.5 -18.5q-63 0 -106.5 27.5t-60.5 67.5h-2l-43 -311h-78z" />
    <glyph glyph-name="ydieresis" unicode="&#xff;" horiz-adv-x="482" 
d="M231 -107q-16 -30 -32 -54.5t-36 -42t-46 -27t-61 -9.5q-17 0 -35 2t-32 10l18 68q20 -8 54 -8q38 0 59 21t39 56l44 88l-128 471h91l94 -367h2l190 367h85zM437 700q23 0 36 -16t10 -38q-3 -23 -20.5 -38.5t-40.5 -15.5t-36.5 15.5t-10.5 38.5q3 22 21 38t41 16z
M239 700q23 0 36 -16t10 -38q-3 -23 -20.5 -38.5t-40.5 -15.5t-36.5 15.5t-10.5 38.5q3 22 21 38t41 16z" />
    <glyph glyph-name="dotlessi" unicode="&#x131;" horiz-adv-x="240" 
d="M146 468h78l-65 -468h-78z" />
    <glyph glyph-name="Lslash" unicode="&#x141;" horiz-adv-x="500" 
d="M118 221l-87 -67l11 79l87 67l57 408h84l-47 -336l242 186l-11 -79l-242 -186l-30 -215h324l-10 -78h-408z" />
    <glyph glyph-name="lslash" unicode="&#x142;" horiz-adv-x="240" 
d="M123 308l-92 -81l12 82l92 81l51 366h78l-40 -288l92 81l-11 -81l-93 -81l-53 -387h-78z" />
    <glyph glyph-name="OE" unicode="&#x152;" horiz-adv-x="963" 
d="M605 630h-66q-80 0 -141 -24t-104 -63t-68 -88.5t-32 -100.5t4 -100.5t43.5 -88.5t86.5 -63t134 -24h66zM658 408h282l-11 -78h-282l-35 -252h306l-10 -78h-460q-98 0 -167.5 29.5t-112 78.5t-58.5 113t-6 133q9 69 43 133t90 113t133.5 78.5t175.5 29.5h454l-11 -78
h-300z" />
    <glyph glyph-name="oe" unicode="&#x153;" horiz-adv-x="907" 
d="M825 276q6 60 -26 96t-97 36q-29 0 -55 -11.5t-46.5 -30t-34.5 -42.5t-18 -48h277zM152 234q-5 -34 0.5 -65.5t22 -55.5t43.5 -38.5t66 -14.5q40 0 72 13.5t56 37.5t38.5 55.5t19.5 67.5q5 34 -0.5 65.5t-22 55.5t-44.5 38.5t-67 14.5t-71 -14t-55.5 -37.5t-38 -55
t-19.5 -67.5zM539 210q-4 -31 2.5 -58t21.5 -47.5t38.5 -32.5t52.5 -12q51 0 88.5 18t70.5 53l52 -46q-49 -54 -102 -75.5t-119 -21.5q-51 0 -94 22.5t-67 73.5q-43 -48 -92.5 -72t-112.5 -24q-56 0 -98.5 17.5t-70 50t-38.5 77.5t-3 101q7 53 31 98t60.5 78t83.5 51.5
t100 18.5q63 0 106.5 -22t75.5 -72q86 94 190 94q49 0 88 -16.5t64 -48t34.5 -77t1.5 -103.5l-3 -25h-361z" />
    <glyph glyph-name="Scaron" unicode="&#x160;" 
d="M505 583q-17 34 -49.5 49.5t-70.5 15.5q-28 0 -56 -7t-51.5 -21t-40 -37t-20.5 -54q-3 -24 1.5 -42.5t20 -33.5t42 -28t67.5 -26q39 -13 75.5 -28t62.5 -38t39 -57.5t6 -86.5q-8 -53 -34 -92t-64.5 -64.5t-85 -38t-94.5 -12.5q-31 0 -61.5 5.5t-57.5 17t-49 30t-36 45.5
l80 59q17 -39 55.5 -59t84.5 -20q27 0 55.5 8t53 23.5t41.5 38.5t21 53q4 33 -4 53.5t-29 35.5t-54 27t-78 28q-36 12 -66 27.5t-50.5 38t-29.5 54t-3 75.5q7 51 32.5 89t63 63.5t82.5 38.5t92 13q60 0 106.5 -18.5t79.5 -64.5zM428 758h-91l-91 144h81l64 -102l91 102h76z
" />
    <glyph glyph-name="scaron" unicode="&#x161;" horiz-adv-x="426" 
d="M101 123q19 -29 44 -46t67 -17q18 0 37 4t35 13t27 22.5t14 32.5t-4 31t-20 20.5t-30.5 13.5t-35.5 9q-32 7 -61 16t-49.5 23.5t-30.5 37.5t-5 59q5 34 23.5 60t45.5 43t59.5 26t65.5 9q50 0 90 -20t57 -65l-71 -43q-11 25 -33.5 40.5t-57.5 15.5q-16 0 -33 -4t-31.5 -12
t-24.5 -20.5t-12 -28.5q-2 -15 6.5 -25.5t23.5 -18.5t35.5 -14t43.5 -10q30 -6 56.5 -15.5t45 -25.5t27.5 -40t4 -59q-5 -40 -25 -68t-49 -45.5t-63.5 -25.5t-69.5 -8q-60 0 -101 18.5t-69 68.5zM339 580h-91l-91 144h81l64 -102l91 102h76z" />
    <glyph glyph-name="Ydieresis" unicode="&#x178;" horiz-adv-x="594" 
d="M297 305l-208 403h107l154 -320l250 320h101l-320 -403l-42 -305h-84zM517 878q23 0 36 -16t10 -38q-3 -23 -20.5 -38.5t-40.5 -15.5t-36.5 15.5t-10.5 38.5q3 22 21 38t41 16zM319 878q23 0 36 -16t10 -38q-3 -23 -20.5 -38.5t-40.5 -15.5t-36.5 15.5t-10.5 38.5
q3 22 21 38t41 16z" />
    <glyph glyph-name="florin" unicode="&#x192;" 
d="M480 359h-126l-112 -344q-12 -35 -27.5 -64t-37.5 -50t-52 -33t-70 -12q-47 0 -81 24l44 63q10 -8 22.5 -11.5t26.5 -3.5q24 0 40.5 10t27.5 25.5t18 34.5t13 37l105 324h-108l10 66h121l36 110q12 36 27 69.5t36.5 59t52.5 41t74 15.5q52 0 96 -28l-46 -62q-11 8 -25 13
t-29 5q-24 0 -41 -10.5t-29 -27t-20 -36.5t-14 -39l-36 -110h114z" />
    <glyph glyph-name="circumflex" unicode="&#x2c6;" horiz-adv-x="240" 
d="M172 708h91l92 -144h-81l-65 102l-92 -102h-76z" />
    <glyph glyph-name="caron" unicode="&#x2c7;" horiz-adv-x="240" 
d="M244 564h-91l-91 144h81l64 -102l91 102h76z" />
    <glyph glyph-name="breve" unicode="&#x2d8;" horiz-adv-x="240" 
d="M113 702q2 -39 28 -58.5t64 -19.5q44 0 72 17t45 61h48q-16 -66 -62 -99t-110 -33q-63 0 -101 33t-33 99h49z" />
    <glyph glyph-name="dotaccent" unicode="&#x2d9;" horiz-adv-x="240" 
d="M215 684q23 0 36 -16t10 -38q-3 -23 -20.5 -38.5t-40.5 -15.5t-36.5 15.5t-10.5 38.5q3 22 21 38t41 16z" />
    <glyph glyph-name="ring" unicode="&#x2da;" horiz-adv-x="240" 
d="M152 645q-3 -25 12 -41t37 -16t42 16t23 41q4 24 -11.5 40.5t-37.5 16.5t-41.5 -16.5t-23.5 -40.5zM110 645q3 20 13 38t25 31.5t34.5 21.5t40.5 8q44 0 67.5 -29.5t17.5 -69.5q-3 -20 -13 -38t-25 -31.5t-34.5 -21.5t-40.5 -8q-43 0 -66.5 29t-18.5 70z" />
    <glyph glyph-name="ogonek" unicode="&#x2db;" horiz-adv-x="240" 
d="M177 -182q-21 -18 -46 -28.5t-51 -10.5q-18 0 -34 6t-27.5 17.5t-16.5 27t-2 34.5q2 21 13 41t26.5 38t34 32.5t35.5 24.5h51q-12 -8 -27.5 -20t-29 -27t-23.5 -32.5t-13 -35.5q-2 -20 8 -33.5t34 -12.5q13 0 27.5 5.5t25.5 14.5z" />
    <glyph glyph-name="tilde" unicode="&#x2dc;" horiz-adv-x="240" 
d="M33 576q6 19 16 38t24.5 33.5t33 23.5t40.5 9q23 0 42 -7.5t39 -15.5q14 -6 25 -11.5t27 -5.5q20 0 33 13t21 31h48q-6 -19 -15 -37.5t-22.5 -33.5t-31 -24t-39.5 -9q-21 0 -40.5 6.5t-37.5 14.5q-14 6 -30 12.5t-33 6.5q-19 0 -32 -13.5t-20 -30.5h-48z" />
    <glyph glyph-name="hungarumlaut" unicode="&#x2dd;" horiz-adv-x="240" 
d="M280 564h-68l129 144h102zM123 564h-67l120 144h96z" />
    <glyph glyph-name="endash" unicode="&#x2013;" horiz-adv-x="500" 
d="M528 204h-500l10 72h500z" />
    <glyph glyph-name="emdash" unicode="&#x2014;" horiz-adv-x="1000" 
d="M38 276h1000l-10 -72h-1000z" />
    <glyph glyph-name="quoteleft" unicode="&#x2018;" horiz-adv-x="278" 
d="M240 708h76l-100 -240h-91z" />
    <glyph glyph-name="quoteright" unicode="&#x2019;" horiz-adv-x="278" 
d="M201 468h-76l100 240h91z" />
    <glyph glyph-name="quotesinglbase" unicode="&#x201a;" horiz-adv-x="278" 
d="M116 -138h-76l101 240h91z" />
    <glyph glyph-name="quotedblleft" unicode="&#x201c;" horiz-adv-x="519" 
d="M454 708h76l-100 -240h-91zM267 708h76l-100 -240h-91z" />
    <glyph glyph-name="quotedblright" unicode="&#x201d;" horiz-adv-x="519" 
d="M415 468h-76l100 240h91zM228 468h-76l100 240h91z" />
    <glyph glyph-name="quotedblbase" unicode="&#x201e;" horiz-adv-x="519" 
d="M330 -138h-76l101 240h91zM143 -138h-76l101 240h91z" />
    <glyph glyph-name="dagger" unicode="&#x2020;" 
d="M387 505h204l-9 -66h-204l-79 -565h-78l79 565h-204l9 66h204l28 203h78z" />
    <glyph glyph-name="daggerdbl" unicode="&#x2021;" 
d="M388 516h198l-9 -66h-198l-44 -318h198l-9 -66h-198l-27 -192h-78l27 192h-198l9 66h198l44 318h-198l9 66h198l27 192h78z" />
    <glyph glyph-name="bullet" unicode="&#x2022;" horiz-adv-x="500" 
d="M122 354q5 37 23 69t45.5 56t61.5 38t71 14t67 -14t51 -38t30.5 -56t4.5 -69t-23.5 -69t-46 -56t-61.5 -38t-71 -14t-67 14t-51 38t-30 56t-4 69z" />
    <glyph glyph-name="ellipsis" unicode="&#x2026;" horiz-adv-x="1000" 
d="M848 114q25 0 40.5 -17.5t11.5 -42.5t-24.5 -42.5t-43.5 -17.5t-39.5 17.5t-12.5 42.5t23.5 42.5t44.5 17.5zM515 114q25 0 40.5 -17.5t11.5 -42.5t-24.5 -42.5t-43.5 -17.5t-39.5 17.5t-12.5 42.5t23.5 42.5t44.5 17.5zM182 114q25 0 40.5 -17.5t11.5 -42.5t-24.5 -42.5
t-43.5 -17.5t-39.5 17.5t-12.5 42.5t23.5 42.5t44.5 17.5z" />
    <glyph glyph-name="perthousand" unicode="&#x2030;" horiz-adv-x="1018" 
d="M627 740l51 -32l-547 -740l-50 32zM772 144q-3 -18 2.5 -34.5t16 -29t26 -20t33.5 -7.5t35.5 7.5t32 20t24 29t12.5 34.5q2 18 -3 34.5t-16 29t-26.5 20t-33.5 7.5t-35.5 -7.5t-32 -20t-24 -29t-11.5 -34.5zM706 145q4 32 21 60.5t41.5 50t54.5 34t62 12.5t58.5 -12.5
t45 -34t27 -50t4.5 -60.5q-5 -33 -21 -61.5t-40.5 -49.5t-54.5 -33.5t-63 -12.5t-59.5 12.5t-45 33.5t-27 49.5t-3.5 61.5zM412 145q-3 -18 2.5 -34.5t16 -29t26 -20t33.5 -7.5t35.5 7.5t32 20t24 29t12.5 34.5q2 18 -3 34.5t-16 29t-26.5 20t-33.5 7.5t-35.5 -7.5t-32 -20
t-24 -29t-11.5 -34.5zM346 145q4 32 21 60.5t41.5 50t54.5 34t62 12.5t58.5 -12.5t45 -34t27 -50t4.5 -60.5q-5 -33 -21 -61.5t-40.5 -49.5t-54.5 -33.5t-63 -12.5t-59.5 12.5t-45 33.5t-27 49.5t-3.5 61.5zM162 563q-3 -18 2.5 -34.5t16 -29t26 -20t33.5 -7.5t35.5 7.5
t32 20t24 29t12.5 34.5t-2.5 34.5t-16 29t-26 20t-33.5 7.5t-35.5 -7.5t-32 -20t-24 -29t-12.5 -34.5zM96 563q4 32 21 60.5t41.5 50t54.5 34t62 12.5t58.5 -12.5t45 -34t27 -50t4.5 -60.5q-5 -33 -21 -61.5t-40.5 -49.5t-54.5 -33.5t-63 -12.5t-59.5 12.5t-45 33.5
t-27 49.5t-3.5 61.5z" />
    <glyph glyph-name="guilsinglleft" unicode="&#x2039;" horiz-adv-x="314" 
d="M172 240l92 -178l-60 -36l-113 214l173 214l50 -36z" />
    <glyph glyph-name="guilsinglright" unicode="&#x203a;" horiz-adv-x="314" 
d="M208 240l-92 178l60 36l113 -214l-173 -214l-50 36z" />
    <glyph glyph-name="trademark" unicode="&#x2122;" horiz-adv-x="990" 
d="M571 708h105l79 -313l167 313h102l-57 -412h-66l48 346h-2l-184 -346h-45l-88 346h-2l-48 -346h-66zM283 642h-130l9 66h326l-9 -66h-130l-48 -346h-66z" />
    <glyph glyph-name="minus" unicode="&#x2212;" horiz-adv-x="666" 
d="M640 336l-9 -66h-522l9 66h522z" />
    <glyph glyph-name="fraction" unicode="&#x2215;" horiz-adv-x="167" 
d="M380 740l51 -32l-546 -740l-51 32z" />
    <glyph glyph-name="fi" unicode="&#xfb01;" horiz-adv-x="537" 
d="M450 651q3 23 22 40t43 17t38 -17t11 -40q-3 -25 -21.5 -41t-43.5 -16t-38.5 16t-10.5 41zM443 468h78l-65 -468h-78zM361 402h-114l-55 -402h-78l55 402h-102l10 66h102l14 105q6 43 19 78.5t36 61.5t57 40.5t81 14.5q15 0 31.5 -3t27.5 -9l-21 -70q-12 5 -25 7.5
t-27 2.5q-30 0 -48.5 -10.5t-29 -29t-16 -44.5t-9.5 -56l-12 -88h114z" />
    <glyph glyph-name="fl" unicode="&#xfb02;" horiz-adv-x="537" 
d="M483 756h78l-105 -756h-78zM169 402h-102l10 66h102l14 105q6 43 19 78.5t36 61.5t57 40.5t81 14.5q15 0 31.5 -3t27.5 -9l-21 -70q-12 5 -25 7.5t-27 2.5q-30 0 -48.5 -10.5t-29 -29t-16 -44.5t-9.5 -56l-12 -88h114l-10 -66h-114l-55 -402h-78z" />
    <glyph glyph-name="uni00A0" horiz-adv-x="278" 
 />
    <glyph glyph-name="nonbreakingspace" horiz-adv-x="278" 
 />
    </font>
</defs>
</svg>
